<svg xmlns="http://www.w3.org/2000/svg" viewBox="0 0 1500 1610"><defs><style>.cls-1{fill:#462e21;}.cls-2{fill:none;}</style></defs><g id="Capa_2" data-name="Capa 2"><g id="hair_SELECT_COLOR" data-name="hair // SELECT COLOR"><g id="dark_SELECT_LENGTH" data-name="dark // SELECT LENGTH"><g id="short_SELECT_HAIRSTYLE" data-name="short // SELECT HAIRSTYLE"><g id="_02-low_bangs" data-name="02-low bangs"><path id="_02-short-dark" data-name="02-short-dark" class="cls-1" d="M1281.51,415.23c-6.28-43.71-17.53-112.65-48.32-157.77-48-70.38-125.13-76-158.64-74.85s-70.38,11.17-70.38,11.17S826,67.39,641.09,82.07c-202.76,16.1-310.92,109.48-356.72,195.5-29.18,54.8-45.43,100.79-52.2,154-10.54,66.45-17.46,155.73,5.16,273.22,5.68,29.49,26.91,123.53,43.67,128S362.92,666.34,405.38,549c.11-.33.23-.65.34-1,42.94-31.64,91-72.57,129.24-109.62,73.74-71.5,140.77-149.7,140.77-149.7S635.51,408.28,621,455.2s-19,82.67,31.28,61.44S750.58,450.73,783,410.51s67-89.37,67-89.37-19,65.91-21.22,109.48,13.4,33.51,54.74-4.47,82.67-122.89,82.67-122.89,5.58,96.08,77.08,201.09c38.74,56.9,63.36,87.2,82.07,103.76,41.92,107,92.44,224,106.52,220.22,16.76-4.47,32.21-84.49,38-114C1296.42,578.79,1293,481.13,1281.51,415.23Z"/><rect class="cls-2" width="1500" height="1610"/></g></g></g></g></g></svg>