<svg xmlns="http://www.w3.org/2000/svg" viewBox="0 0 1500 1610"><defs><style>.cls-1{fill:#462e21;}.cls-2{fill:none;}</style></defs><g id="Capa_2" data-name="Capa 2"><g id="hair_SELECT_COLOR" data-name="hair // SELECT COLOR"><g id="dark_SELECT_LENGTH" data-name="dark // SELECT LENGTH"><g id="short_SELECT_HAIRSTYLE" data-name="short // SELECT HAIRSTYLE"><g id="_03-bowl" data-name="03-bowl"><path id="_03-short-dark" data-name="03-short-dark" class="cls-1" d="M250.33,739.5s40.53,51.89,56.11,53.46.73-54.7,18.56-130.79c20-85.34,60-136,60-136s-3.12,83.34,7.79,84.92,134-35.93,338.23-31.45c215.1,4.71,355.51,34.78,360,31.45,10.25-7.51-5.19-93.6,0-94.35,6.37-.93,49.9,78.76,76.57,153.43,21.13,59.17,16.62,106.29,40,100s44.58-24.91,43.64-42.46C1249,684.34,1235.22,366.49,1017.85,240,798.11,112.1,531.72,156.17,393,300.83S233.19,693.9,250.33,739.5Z"/><rect class="cls-2" width="1500" height="1610"/></g></g></g></g></g></svg>