<svg xmlns="http://www.w3.org/2000/svg" viewBox="0 0 1500 1610"><defs><style>.cls-1{fill:#462e21;}.cls-2{fill:none;}</style></defs><g id="Capa_2" data-name="Capa 2"><g id="hair_SELECT_COLOR" data-name="hair // SELECT COLOR"><g id="dark_SELECT_LENGTH" data-name="dark // SELECT LENGTH"><g id="short_SELECT_HAIRSTYLE" data-name="short // SELECT HAIRSTYLE"><g id="_07-shaven" data-name="07-shaven"><path id="_06-short-dark" data-name="06-short-dark" class="cls-1" d="M1233.09,754.18c-2.25,36.42-6.72,61.32-15.48,59.76-24.27-4.35-60.12-151.23-79.08-231.75s-32.07-180.87-103.65-221.28S899,395.77,773.58,426,550.11,338.32,473,349.75,392.61,487.6,366.36,586.84,299,827.89,286.89,828c-10.23.09-17.58-23.94-21.84-75.45l.33.27c-6-102.75,9.69-209.52,40.95-276C377.79,325,468,280.69,541,248.83c106.59-46.5,401.42-82.26,557.33,86.67,86.85,94.11,133.92,260,134,419.31Z"/><rect class="cls-2" width="1500" height="1610"/></g></g></g></g></g></svg>