<svg xmlns="http://www.w3.org/2000/svg" viewBox="0 0 1500 1610"><defs><style>.cls-1{fill:#462e21;}.cls-2{fill:none;}</style></defs><g id="Capa_2" data-name="Capa 2"><g id="hair_SELECT_COLOR" data-name="hair // SELECT COLOR"><g id="dark_SELECT_LENGTH" data-name="dark // SELECT LENGTH"><g id="short_SELECT_HAIRSTYLE" data-name="short // SELECT HAIRSTYLE"><g id="_08-short-curly" data-name="08-short-curly"><path class="cls-1" d="M266.33,815.5s45.34-40,85.34-129.33S394.33,531.5,394.33,531.5s32-16,60-53.33,25.34-68,25.34-68,37.33,38.66,98.66,14.66,77.34-68,77.34-68,41.33,48,93.33,48,93.33-46.66,93.33-46.66,18.67,53.33,77.34,68,100-18.67,100-18.67,9.33,46.67,37.33,77.33,52,42.67,52,42.67,6,102,54.67,182.67c39.47,65.42,70.66,105.33,70.66,105.33s52-32,62.67-78.67-30.67-65.33-30.67-65.33,61.34-44,62.67-121.33-62.67-106.67-62.67-106.67,36.67-72.67-10.66-118c-44.68-42.79-93.34-23.33-93.34-23.33s40-102.67-72-165.34-166.66,6.67-166.66,6.67S885,46.17,749,46.17s-168,96-168,96-97.33-57.34-178.67,5.33S345,310.17,345,310.17,277.67,291.5,243,339.5s4.67,114.67,4.67,114.67-64,9.33-70.67,86.66,56,141.34,56,141.34-28,16-21.33,64S266.33,815.5,266.33,815.5Z"/><rect class="cls-2" width="1500" height="1610"/></g></g></g></g></g></svg>