<svg xmlns="http://www.w3.org/2000/svg" viewBox="0 0 1500 1610"><defs><style>.cls-1{fill:#462e21;}.cls-2{fill:none;}</style></defs><g id="Capa_2" data-name="Capa 2"><g id="hair_SELECT_COLOR" data-name="hair // SELECT COLOR"><g id="dark_SELECT_LENGTH" data-name="dark // SELECT LENGTH"><g id="medium_SELECT_HAIRSTYLE" data-name="medium // SELECT HAIRSTYLE"><g id="_10-curly" data-name="10-curly"><g id="_12-long-dark" data-name="12-long-dark"><path class="cls-1" d="M1318.31,635.54a60.66,60.66,0,0,0-21.73-31.32c.46-.9,1-1.78,1.39-2.7,8.68-18.26,13.69-38.83,11.57-59.12-1.94-18.51-9-36.15-22.08-49.65-11.13-11.54-25.69-19.64-41.08-23.95-1.88-.53-3.77-1-5.67-1.36a92.82,92.82,0,0,0,7.28-17.25,116.23,116.23,0,0,0,4.06-50.81c-2.43-17.24-8.88-34.63-20.22-48-11.74-13.85-29.23-21.75-46.92-24.48a110.31,110.31,0,0,0-22-1,123.6,123.6,0,0,0,2.31-35.58c-1.89-20.38-9.41-40-23.34-55.23-14.4-15.73-34.48-23.32-55.43-24.92a151,151,0,0,0-51.49,5.43,105.21,105.21,0,0,0-5.23-20.2c-10.67-28.63-34.09-50.66-61.93-62.5-31.88-13.57-67-10.07-100.18-3.62C838.22,135,809.1,144.1,782.51,158a197.83,197.83,0,0,0-42.43,29.55C712.1,142,660.56,112.16,607.34,108c-63.14-4.9-128.13,24.24-161.15,79.33-.51.85-1,1.72-1.48,2.57a109.52,109.52,0,0,0-68.92-5.08c-22.77,5.63-43.36,18.49-59.52,35.35-17,17.71-30.56,40.52-35.33,64.76a86.5,86.5,0,0,0,.82,38.26c-1.48.24-3,.49-4.43.79-25.14,5.06-49.8,18.45-67.38,37.22s-30.58,42.53-34.18,68.33c-3.54,25.34,1.19,51.2,12.39,74.13a139.53,139.53,0,0,0,14.05,22.9A122.23,122.23,0,0,0,174.3,558a126.13,126.13,0,0,0-18.63,60.6c-.86,20.58,5.47,42,15,60.06a128.15,128.15,0,0,0,20,27.79c.64.68,1.3,1.36,2,2-2.1,3.63-4.1,7.32-5.89,11.08a155,155,0,0,0-8.67,22.79c1.26-1,2.55-1.93,3.87-2.8,20.14-13.16,40.27-11.28,58-3.22a153.28,153.28,0,0,0,7.72,18.35c18.85,37,21.06,53.23,32.15,48.6s51-54.49,65.42-121.5C354.39,639,331.87,580,331.87,580s38.81,0,73.18-37,20-92.58,20-92.58,28.83,3.47,52.11-13.89A111.61,111.61,0,0,0,510.39,396s-2.22,69.43,56.55,81,94.24-35.88,94.24-35.88S636.79,542.94,741,541.78s104.22-79.85,104.22-79.85,38.81,40.5,87.6,8.1,18.85-85.63,18.85-85.63,15.52,27.77,45.46,26.62,37.7-15,37.7-15-6.66,39.35,26.61,54.39,45.46,11.57,45.46,11.57-22.18,50.92,5.54,93.73,57.66,41.66,57.66,41.66-13.56,92.06,13.55,140.85c26.66,48,44.1,72.08,56.3,65.13,4.84-2.75,11.37-26.57,14.52-64.12,13.2-7.15,28-11.21,43.24-8.14A86.8,86.8,0,0,0,1317.29,696C1322.43,677.08,1323.86,654.53,1318.31,635.54Z"/><path class="cls-1" d="M298.74,927.67c-14.09,8.62-36.53,15-72.21,13.14-11.7,22-18.71,46.29-18.51,71.64.34,43.3,21.81,85.91,61.16,106.14a105.34,105.34,0,0,0,28.19,9.81,108.66,108.66,0,0,0,10.32,43.48c16.67,35.88,51.48,58.52,90.51,62.16a117.77,117.77,0,0,0,36.05-2c.48,1.33,1,2.65,1.52,4a124.58,124.58,0,0,0,32.93,46.79c13.82,12.1,31,21.93,49.28,25.12a92.05,92.05,0,0,0,53.77-6.75,90.27,90.27,0,0,0,25-16.69c.59-.56,1.17-1.14,1.75-1.71,12.66,12.49,29.13,21.51,45.84,28,.11-15.11.45-31.11.89-46.42.45-16,1-31.14,1.5-43.8-88.11-16.71-169.86-54.09-232.53-110.28C360.45,1062.16,322.86,997.9,298.74,927.67Z"/><path class="cls-1" d="M1292.43,938.32a85.94,85.94,0,0,1-14.55,2.25c-32.82,2.25-54.87-2.25-69.75-9.24-21.09,70.41-56.52,132.33-108.51,176.73-70.5,60.21-155.61,97.26-243.75,113.28.21,13.08.39,28.41.48,44.22.08,17.42,0,35.4-.28,51.7a114.57,114.57,0,0,0,43.53-19.69,70.22,70.22,0,0,0,42.49,18c28.92,2,54.54-14.21,69.2-38.46a99.74,99.74,0,0,0,6-11.74,108.29,108.29,0,0,0,51,1.81c34.65-7.14,64.7-33.84,76.53-67.12.85-2.37,1.6-4.77,2.29-7.19a65.56,65.56,0,0,0,22.43-3c26.87-8.56,46.3-32.32,51.45-59.79a100.64,100.64,0,0,0,1.61-14.11c21.36-4.45,40.46-17,54.21-33.8,28.12-34.37,35.15-82,22.94-124.18A149.05,149.05,0,0,0,1292.43,938.32Z"/></g><rect class="cls-2" width="1500" height="1610"/></g></g></g></g></g></svg>