<svg xmlns="http://www.w3.org/2000/svg" viewBox="0 0 1500 1610"><defs><style>.cls-1{fill:#462e21;}.cls-2{fill:none;}</style></defs><g id="Capa_2" data-name="Capa 2"><g id="hair_SELECT_COLOR" data-name="hair // SELECT COLOR"><g id="dark_SELECT_LENGTH" data-name="dark // SELECT LENGTH"><g id="long_SELECT_HAIRSTYLE" data-name="long // SELECT HAIRSTYLE"><g id="_13-wavy" data-name="13-wavy"><g id="_09-long-dark" data-name="09-long-dark"><path class="cls-1" d="M946.2,325.2s11.78,60.38,86.88,162,137.25,185.64,169.25,256.31c18.86,41.65,21.14,46.73,37.34,32,6.39-5.81,11.9-19.91,16-36.89a74.76,74.76,0,0,1,22.18-7.81c-1.33-46.55.25-90.37,2.64-149.37C1285,469.5,1253,389.5,1181,329.5c-67.67-56.39-205.35-92.65-205.35-92.65S796,104.32,611.93,133.77s-238,145-278.32,235.61C286.49,475.41,248,489.78,195,585.5c-33.41,60.32-36.61,120.07-30.42,171a67.32,67.32,0,0,1,17.34-17c14.22-9.29,28.42-11.08,41.78-8.5l0,.43s34.66,9.33,64,58.67C305.34,802,318.88,655.06,402.82,584.38s307.77-72.16,402-131.06S946.2,325.2,946.2,325.2Z"/><path class="cls-1" d="M1281,1289.5c27.69-78.06,86.53-131.23,60-258-10.51-50.2-23.35-69.72-34.56-98.06a80.09,80.09,0,0,1-28.56,7.13c-32.82,2.25-54.87-2.25-69.75-9.24-21.09,70.41-56.52,132.33-108.51,176.73-70.5,60.21-155.61,97.26-243.75,113.28.21,13.08.39,28.41.48,44.22.15,32.13-.15,66.24-1.71,88a455,455,0,0,1,54.48,7.44c20.58,4.17,40.77,10.11,59.49,18.57a181.15,181.15,0,0,1,47.1,30.15c38.74,34.9,51.11,99.74,54.79,146.19,83.11-13.91,153.7-40.81,191.88-92.24C1313.45,1394.88,1258.46,1353.05,1281,1289.5Z"/><path class="cls-1" d="M298.74,927.67c-14.67,9-38.34,15.51-76.62,12.9-21.7-1.48-38.61-10.27-51.16-23.46-6.92,30.77-14.39,61.4-19.66,92.53-10.2,60.32-14.34,124.72,6.94,183.22,21.36,58.69,71.18,101.64,92.24,160.57,20.92,58.52,10.18,126,72.33,161.31,31.24,17.77,68.51,27.56,106.72,33.67,4.41-45.71,17.44-105.62,54.13-138.67a180.65,180.65,0,0,1,47.1-30.15c18.72-8.46,38.91-14.4,59.46-18.57a460,460,0,0,1,54.63-7.47c-1.05-23.58-.57-57.81.33-89.16.45-16,1-31.14,1.5-43.8-88.11-16.71-169.86-54.09-232.53-110.28C360.45,1062.16,322.86,997.9,298.74,927.67Z"/></g><rect class="cls-2" width="1500" height="1610"/></g></g></g></g></g></svg>