<?xml version="1.0" encoding="utf-8"?>
<!-- Generator: Adobe Illustrator 25.3.1, SVG Export Plug-In . SVG Version: 6.00 Build 0)  -->
<svg version="1.1" id="Capa_1" xmlns="http://www.w3.org/2000/svg" xmlns:xlink="http://www.w3.org/1999/xlink" x="0px" y="0px"
	 viewBox="0 0 1500 1610" style="enable-background:new 0 0 1500 1610;" xml:space="preserve">
<style type="text/css">
	.st0{fill:#3587B0;}
	.st1{fill:#2E6E8F;}
	.st2{fill:none;}
</style>
<g>
	<g id="Capa_2_1_">
		<g id="bow_SELECT_POSITION">
			<g id="blue">
				<g id="_02-bow-right-blue">
					<g id="bow-right-blue">
						<path class="st0" d="M1099.8,372.8c0,0,121.9-35.8,154,0.4s-18.4,180-94.6,163.4s-78.4-136.7-77.2-143.2
							S1091.7,370.4,1099.8,372.8z"/>
						<path class="st0" d="M1073.7,352.7c0,0-1.3-123.2-59.5-138.6S916.5,249,900,311s-1.5,91.6,31.4,100.1s101.6-11.2,121.7-28.4
							C1065.1,372.5,1073.7,352.7,1073.7,352.7z"/>
						<path class="st1" d="M1110.1,372.5c-1-8.8-2.1-15.6-23.4-26.8s-38.6,1.4-48.6,18.9s0.8,33.7,17.9,44.9s30.4,7.4,33.6,3.9
							C1111.7,390,1111.4,383.9,1110.1,372.5z"/>
					</g>
				</g>
				<rect class="st2" width="1500" height="1610"/>
			</g>
		</g>
	</g>
</g>
</svg>
