<svg xmlns="http://www.w3.org/2000/svg" viewBox="0 0 1500 1610"><defs><style>.cls-1{fill:#315f91;}.cls-2{fill:none;}</style></defs><g id="Capa_2" data-name="Capa 2"><g id="clothes_SELECT_SHAPE" data-name="clothes // SELECT SHAPE"><g id="blue"><path id="_05-v_neck-blue" data-name="05-v neck-blue" class="cls-1" d="M1015.71,1409.74a181.15,181.15,0,0,0-47.1-30.15c-18.72-8.46-38.91-14.4-59.49-18.57-16.89-3.45-46.89-7.31-47.87-7.39C833,1385,767.5,1478.5,750,1477.5c-15,.5-85.5-93.5-111.32-123.93-17.95,1.47-30.34,3.74-48.46,7.45-20.55,4.17-40.74,10.11-59.46,18.57a180.65,180.65,0,0,0-47.1,30.15C418.92,1468.06,427.83,1610,427.83,1610h643.71S1080.45,1468.06,1015.71,1409.74Z"/><rect class="cls-2" width="1500" height="1610"/></g></g></g></svg>