<?xml version="1.0" encoding="utf-8"?>
<!-- Generator: Adobe Illustrator 25.3.1, SVG Export Plug-In . SVG Version: 6.00 Build 0)  -->
<svg version="1.1" id="Capa_1" xmlns="http://www.w3.org/2000/svg" xmlns:xlink="http://www.w3.org/1999/xlink" x="0px" y="0px"
	 viewBox="0 0 1500 1610" style="enable-background:new 0 0 1500 1610;" xml:space="preserve">
<style type="text/css">
	.st0{fill:#462E21;}
	.st1{fill:none;}
</style>
<g>
	<g id="Capa_2_1_">
		<g id="glasses_SELECT_SHAPE">
			<g id="dark">
				<g id="_02-oval">
					<path class="st0" d="M1311.2,680.1c-1.9-5.7-8.1-8.8-13.8-6.8c0,0,0,0-0.1,0l-112.2,38.5c-2.2-20.8-10.4-40.5-27.8-53.2
						c-6.1-4.4-13-7.8-20.2-9.9c-34.1-10.1-63.3-11.1-97.3-12c-7.2-0.2-14.3-0.4-21.5-0.7c-58.9-2.3-111.6-2.7-159.7,16.1
						c-35.2,13.7-47.2,54.8-44.3,91.3c-19.6-14.4-42.8-22.4-65.9-21.9c-21.5,0.4-42.8,8.2-61.2,21.4c2.7-36.4-9.3-77.2-44.3-90.8
						c-48-18.8-100.8-18.4-159.7-16.1c-7.1,0.3-14.3,0.5-21.4,0.7c-34,0.9-63.2,1.9-97.3,12c-7.3,2.1-14.1,5.5-20.2,9.9
						c-17.3,12.7-25.6,32.4-27.8,53.2l-112.2-38.5c-1.1-0.4-2.3-0.6-3.6-0.6c-6,0-10.9,4.9-10.9,11c0,4.7,3,8.8,7.4,10.3l119.2,40.9
						c1.7,18.5,7.4,36.2,15.1,49.2c20.7,35.2,55.6,49.1,92.3,59.4c35.5,9.9,70.8,15,104.4,15c21.4,0.1,42.7-2.1,63.6-6.5
						c41.3-8.8,72.3-34.8,86.9-71.4c17.8-23.2,44-37.6,70.2-38.1c27.8-0.5,56.2,14.7,74.7,39.9c14.8,35.7,45.6,61,86.2,69.7
						c20.9,4.4,42.2,6.5,63.6,6.5c33.6,0,68.9-5,104.4-15c36.7-10.3,71.6-24.2,92.3-59.4c7.7-13,13.3-30.8,15-49.2l119.3-40.8
						C1310.1,692,1313.1,685.8,1311.2,680.1z M668.1,752.5c-7.5,42.8-36.6,72.7-80,82c-48.2,10.3-103.3,7.5-159.3-8.2
						c-34.9-9.8-64.3-21.8-81.6-51.2c-16.1-27.4-21-80.8,7.9-102l0,0c4.5-3.2,9.4-5.6,14.7-7.1c31.8-9.5,59.8-10.4,92.6-11.3
						c7.2-0.2,14.4-0.4,21.6-0.7c15.6-0.6,30.8-1.1,45.5-1.1c38.8,0,74.4,3.3,106.9,16C666.2,680.5,673.7,720.3,668.1,752.5z
						 M1154.6,775c-17.3,29.4-46.8,41.4-81.6,51.2c-56,15.7-111.1,18.5-159.3,8.2c-43.4-9.3-72.5-39.2-80-82
						c-5.6-32.1,1.9-72,31.6-83.6c32.5-12.7,68.1-16,106.9-16c14.7,0,29.9,0.5,45.5,1.1c7.2,0.3,14.4,0.5,21.7,0.7
						c32.9,0.9,60.9,1.8,92.7,11.3c5.3,1.5,10.3,3.9,14.7,7.1l0,0C1175.7,694.3,1170.7,747.6,1154.6,775z"/>
				</g>
				<rect class="st1" width="1500" height="1610"/>
			</g>
		</g>
	</g>
</g>
</svg>
