<?xml version="1.0" encoding="utf-8"?>
<!-- Generator: Adobe Illustrator 25.3.1, SVG Export Plug-In . SVG Version: 6.00 Build 0)  -->
<svg version="1.1" id="Capa_1" xmlns="http://www.w3.org/2000/svg" xmlns:xlink="http://www.w3.org/1999/xlink" x="0px" y="0px"
	 viewBox="0 0 1500 1610" style="enable-background:new 0 0 1500 1610;" xml:space="preserve">
<style type="text/css">
	.st0{fill:#EC5355;}
	.st1{fill:none;}
</style>
<g>
	<g id="Capa_2_1_">
		<g id="glasses_SELECT_SHAPE">
			<g id="red">
				<g id="_01-round">
					<path class="st0" d="M1283.8,678.6c-3-8.8-12.7-13.6-21.5-10.5l-115.4,39.5c-12.5-82-82.5-144.7-167-144.7
						c-91.2,0-165.5,73.1-168.8,164.6c-15.6-9.4-37.5-14.4-56.4-15.3c-22.8-1-44.7,5.2-61.5,17.4c-1.6,1.1-3,2.3-4.5,3.5
						c-0.3-94.1-75.8-170.3-169-170.3c-84.5,0-154.5,62.8-167,144.7L237.4,668c-8.7-3.4-18.5,1-21.9,9.7c-3.4,8.7,1,18.5,9.7,21.9
						c0.4,0.1,0.8,0.3,1.2,0.4L351,742.8c4.6,90.2,78.4,162,168.7,162c73.5,0,136-47.5,159.2-113.7c19.5-30.2,48.8-58.1,89.8-47.4
						c23.6,6.1,35.6,14.2,47.2,31.6c18.3,74.4,84.8,129.6,164,129.6c90.3,0,164.1-71.7,168.7-162l124.6-42.7
						C1282.1,697,1286.8,687.4,1283.8,678.6z M519.8,875.7c-77.5,0-140.2-63.5-140.2-141.9S442.3,592,519.7,592S660,655.5,660,733.8
						S597.2,875.7,519.8,875.7L519.8,875.7z M979.9,875.7c-77.5,0-140.2-63.5-140.2-141.9S902.4,592,979.9,592
						s140.2,63.5,140.2,141.9S1057.3,875.7,979.9,875.7L979.9,875.7z"/>
				</g>
				<rect class="st1" width="1500" height="1610"/>
			</g>
		</g>
	</g>
</g>
</svg>
