<?xml version="1.0" encoding="utf-8"?>
<!-- Generator: Adobe Illustrator 25.3.1, SVG Export Plug-In . SVG Version: 6.00 Build 0)  -->
<svg version="1.1" id="Capa_1" xmlns="http://www.w3.org/2000/svg" xmlns:xlink="http://www.w3.org/1999/xlink" x="0px" y="0px"
	 viewBox="0 0 1500 1610" style="enable-background:new 0 0 1500 1610;" xml:space="preserve">
<style type="text/css">
	.st0{fill:#A8552D;}
	.st1{fill:none;}
	.st2{fill:#874522;}
</style>
<g>
	<g id="Capa_2_1_">
		<g id="clothes_SELECT_SHAPE">
			<g id="brown">
				<g id="_02-high-neck-red">
					<g id="_02-high_neck-blue">
						<path class="st0" d="M1071.5,1610H427.8c0,0-8.9-141.9,55.8-200.2c14-12.4,29.9-22.6,47.1-30.2c18.7-8.5,38.9-14.4,59.5-18.6
							c18-3.6,36.3-6.1,54.6-7.5v-0.1c-1-22.3-0.6-54.1,0.2-84c70,10.5,141.2,10.8,211.4,0.7c0.1,30.8-0.2,62.7-1.7,83.5
							c1.2,0.1,2.4,0.2,3.6,0.3c17.1,1.4,34.1,3.8,50.9,7.1c20.6,4.2,40.8,10.1,59.5,18.6c17.2,7.6,33.1,17.7,47.1,30.2
							C1080.4,1468.1,1071.5,1610,1071.5,1610z"/>
						<path class="st0" d="M858.2,1353.9c-70.8,10.3-142.6,10.2-213.4-0.4c-1-22.3-0.6-54.1,0.2-84c70,10.5,141.2,10.8,211.3,0.7
							c0.1,30.8-0.2,62.7-1.7,83.5C855.8,1353.7,857,1353.8,858.2,1353.9z"/>
					</g>
					<rect class="st1" width="1500" height="1610"/>
				</g>
				<path class="st2" d="M858.2,1353.9c-70.8,10.3-142.6,10.2-213.4-0.4c-1-22.3-0.6-54.1,0.2-84c70,10.5,141.2,10.8,211.3,0.7
					c0.1,30.8-0.2,62.7-1.7,83.5C855.8,1353.7,857,1353.8,858.2,1353.9z"/>
			</g>
		</g>
	</g>
</g>
</svg>
