<?xml version="1.0" encoding="utf-8"?>
<!-- Generator: Adobe Illustrator 25.3.1, SVG Export Plug-In . SVG Version: 6.00 Build 0)  -->
<svg version="1.1" id="Capa_1" xmlns="http://www.w3.org/2000/svg" xmlns:xlink="http://www.w3.org/1999/xlink" x="0px" y="0px"
	 viewBox="0 0 1500 1610" style="enable-background:new 0 0 1500 1610;" xml:space="preserve">
<style type="text/css">
	.st0{fill:#B56F4D;}
	.st1{fill:#8C5034;}
	.st2{fill:none;}
</style>
<g>
	<g id="Capa_2_1_">
		<g id="skin_SELECT_COLOR">
			<g id="brown">
				<path class="st0" d="M1318.1,739.6c-31.8-20.8-63.5-4.1-85.7,15.2c-0.1-159.3-52.8-324.4-139.6-418.5
					C936.8,167.4,647,206.5,540.4,253c-73,31.9-162,80.1-233.4,232c-31.3,66.5-47.6,165.1-41.6,267.9
					c-22.1-18.5-52.8-33.3-83.4-13.3c-58.1,38-58.1,194.3,40.2,201c38.3,2.6,62-3.9,76.6-12.9c24.1,70.2,61.7,134.5,115.4,182.6
					c62.7,56.2,144.4,93.6,232.5,110.3c-0.5,12.7-1.1,27.8-1.5,43.8c-0.9,31.3-1.4,65.6-0.3,89.2c-18.3,1.4-36.6,3.9-54.6,7.4
					c-20.6,4.2-40.8,10.1-59.5,18.6c-17.2,7.7-33.2,17.6-47.1,30.2c-64.7,58.3-55.8,200.2-55.8,200.2h643.7
					c0,0,8.9-141.9-55.8-200.2c-14-12.4-29.9-22.6-47.1-30.2c-18.7-8.5-38.9-14.4-59.5-18.6c-18-3.6-36.2-6.1-54.5-7.4
					c1.5-21.8,1.8-55.9,1.7-88c-0.1-15.8-0.3-31.1-0.5-44.2c88.2-16,173.3-53.1,243.8-113.3c52-44.4,87.4-106.3,108.5-176.7
					c14.9,7,36.9,11.5,69.8,9.2C1376.1,933.9,1376.1,777.5,1318.1,739.6z"/>
				<path class="st1" d="M646.7,1220.6c-0.5,12.7-1.1,27.8-1.5,43.8c42.7,19.3,91,26,139.6,19.8c25.2-3.2,46.9-7.9,71.6-18.6
					c-0.1-15.8-0.3-31.1-0.5-44.2C786.7,1233.9,715.8,1233.6,646.7,1220.6z"/>
				<rect class="st2" width="1500" height="1610"/>
			</g>
		</g>
	</g>
</g>
</svg>
