<?xml version="1.0" encoding="utf-8"?>
<!-- Generator: Adobe Illustrator 25.3.1, SVG Export Plug-In . SVG Version: 6.00 Build 0)  -->
<svg version="1.1" id="Capa_1" xmlns="http://www.w3.org/2000/svg" xmlns:xlink="http://www.w3.org/1999/xlink" x="0px" y="0px"
	 viewBox="0 0 1500 1610" style="enable-background:new 0 0 1500 1610;" xml:space="preserve">
<style type="text/css">
	.st0{fill:#FFAF8A;}
	.st1{fill:#E09470;}
	.st2{fill:none;}
</style>
<g>
	<g id="Capa_2_1_">
		<g id="skin_SELECT_COLOR">
			<g id="light">
				<path class="st0" d="M1277.9,940.6c-32.8,2.2-54.9-2.2-69.8-9.2c-21.1,70.4-56.5,132.3-108.5,176.7
					c-70.5,60.2-155.6,97.3-243.8,113.3c0.2,13.1,0.4,28.4,0.5,44.2c0.2,32.1-0.2,66.2-1.7,88c18.3,1.4,36.5,3.9,54.5,7.4
					c20.6,4.2,40.8,10.1,59.5,18.6c17.2,7.6,33.1,17.7,47.1,30.2c64.7,58.3,55.8,200.2,55.8,200.2H427.8c0,0-8.9-141.9,55.8-200.2
					c14-12.4,29.9-22.6,47.1-30.2c18.7-8.5,38.9-14.4,59.5-18.6c18-3.6,36.3-6.1,54.6-7.5c-1-23.6-0.6-57.8,0.3-89.2
					c0.5-16,1-31.1,1.5-43.8c-88.1-16.7-169.9-54.1-232.5-110.3c-53.7-48.2-91.3-112.4-115.4-182.6c-14.7,9-38.3,15.5-76.6,12.9
					c-98.2-6.7-98.2-163-40.2-201c30.5-20,61.1-5.3,83.1,13l0.3,0.3c-6-102.7,10.3-201.3,41.6-267.8
					c71.4-151.9,160.4-200.2,233.4-232c106.6-46.5,396.4-85.6,552.3,83.4c86.8,94.1,139.5,259.2,139.6,418.5l0.8-0.6
					c22.2-19.1,53.6-35.1,85-14.6C1376.1,777.5,1376.1,933.9,1277.9,940.6z"/>
				<path class="st1" d="M646.7,1220.6c-0.5,12.7-1.1,27.8-1.5,43.8c42.7,19.3,91,26,139.6,19.8c25.2-3.2,46.9-7.9,71.6-18.6
					c-0.1-15.8-0.3-31.1-0.5-44.2C786.7,1233.9,715.8,1233.6,646.7,1220.6z"/>
				<rect class="st2" width="1500" height="1610"/>
			</g>
		</g>
	</g>
</g>
</svg>
