<?xml version="1.0" encoding="utf-8"?>
<!-- Generator: Adobe Illustrator 25.3.1, SVG Export Plug-In . SVG Version: 6.00 Build 0)  -->
<svg version="1.1" id="Capa_1" xmlns="http://www.w3.org/2000/svg" xmlns:xlink="http://www.w3.org/1999/xlink" x="0px" y="0px"
	 viewBox="0 0 1500 1610" style="enable-background:new 0 0 1500 1610;" xml:space="preserve">
<style type="text/css">
	.st0{fill:#3587B0;}
	.st1{fill:#2E6E8F;}
	.st2{fill:none;}
</style>
<g>
	<g id="Capa_2_1_">
		<g id="bow_SELECT_POSITION">
			<g id="blue">
				<g id="_04-bow-tie-blue">
					<g id="bow-right-blue">
						<path class="st0" d="M768.9,1370.5c0,0,81.1-89.6,125.1-76.2s74.6,155.2,4.5,179.5s-131.6-71.9-133.8-77.7
							S761.1,1372.5,768.9,1370.5z"/>
						<path class="st0" d="M737.8,1367.1c0,0-62.3-99.2-117.1-82.8s-62,76.9-44.5,135.3s44.3,75.1,75.3,65.6s76.8-59.6,84.6-83.5
							C740.7,1387.4,737.8,1367.1,737.8,1367.1z"/>
						<path class="st1" d="M777.1,1365.1c-5.2-6.7-9.5-11.6-32.3-10.1s-30.6,20.3-30,39.5s17.4,26.9,36.9,27.5s28.3-9.1,29.2-13.5
							C787.1,1378.5,783.8,1373.7,777.1,1365.1z"/>
					</g>
				</g>
				<rect class="st2" width="1500" height="1610"/>
			</g>
		</g>
	</g>
</g>
</svg>
