<?xml version="1.0" encoding="utf-8"?>
<!-- Generator: Adobe Illustrator 25.3.1, SVG Export Plug-In . SVG Version: 6.00 Build 0)  -->
<svg version="1.1" id="Capa_1" xmlns="http://www.w3.org/2000/svg" xmlns:xlink="http://www.w3.org/1999/xlink" x="0px" y="0px"
	 viewBox="0 0 1500 1610" style="enable-background:new 0 0 1500 1610;" xml:space="preserve">
<style type="text/css">
	.st0{fill:#78675D;}
	.st1{fill:none;}
</style>
<g>
	<g id="Capa_2_1_">
		<g id="noses_SELECT_SHAPE">
			<g id="_01-upturned">
				<path class="st0" d="M805.1,809.4c-10.2,3.3-20.1,7.5-30,11.8c-3.8,1.6-12.1,5.9-17.6,8c0.2-1.7,0.3-3.4,0.4-4.5
					c0.5-8,0.2-16.2,0.2-24.3c0.1-15.6,1.3-31.1-4-45.9c-0.5-1.6-2.2-2.4-3.8-1.9c-0.9,0.3-1.6,1-1.9,1.9l0,0
					c-6,15.7-5,32.8-5.2,49.5c-0.2,10.4-2,24,1.7,34.1c0.8,2.7,3.3,4.5,6.1,4.6c7.5,0.8,24.2-7.2,31.4-9.3c8.1-2.4,16.1-5,24.1-7.5
					c0.3-0.1,0.7-0.2,1.2-0.3c-1.3,5.4-1.7,11.5-3.3,16.7c-3.2,10.7-7.3,21.7-14,30.7c-7.6,10.1-18.9,16.5-30.8,20
					c-7.7,2.3-16.9,1.5-22.3,8c-1.5,1.9-1.9,4.5,0,6.4c14.1,13.7,47.6-6.5,59.1-16.7c17.5-15.5,26.3-41,29.1-63.6
					C827.2,811.4,821.8,804,805.1,809.4z"/>
				<rect class="st1" width="1500" height="1610"/>
			</g>
		</g>
	</g>
</g>
</svg>
