<?xml version="1.0" encoding="utf-8"?>
<!-- Generator: Adobe Illustrator 25.3.1, SVG Export Plug-In . SVG Version: 6.00 Build 0)  -->
<svg version="1.1" id="Capa_1" xmlns="http://www.w3.org/2000/svg" xmlns:xlink="http://www.w3.org/1999/xlink" x="0px" y="0px"
	 viewBox="0 0 1500 1610" style="enable-background:new 0 0 1500 1610;" xml:space="preserve">
<style type="text/css">
	.st0{fill:#78675D;}
	.st1{fill:none;}
</style>
<g>
	<g id="Capa_2_1_">
		<g id="noses_SELECT_SHAPE">
			<g id="_02-medium">
				<g id="_02-medium-2">
					<path class="st0" d="M742.8,751.3c-2.5,23.9-2.9,48-1.3,72c0.2,4,3,6.5,6.9,6.9c17.6,2,83.7,5.9,61.8,37.5
						c-7.5,10.7-20.8,17.9-32.9,21.8c-12,3.8-25.1,1.8-36.3,7.4c-6.6,3.3-5.4,12.5,0,16c15.3,10.1,41.3,1.3,56.4-6
						c17.5-8.4,35.2-22.7,39.6-42.5c11.7-52.8-57.8-45.4-88.6-48.1c2.3,2.3,4.6,4.6,6.9,6.9c1-24,0-48.1-3-72
						C751.5,745.2,743.4,745,742.8,751.3L742.8,751.3z"/>
				</g>
				<rect class="st1" width="1500" height="1610"/>
			</g>
		</g>
	</g>
</g>
</svg>
