<?xml version="1.0" encoding="utf-8"?>
<!-- Generator: Adobe Illustrator 25.3.1, SVG Export Plug-In . SVG Version: 6.00 Build 0)  -->
<svg version="1.1" id="Capa_1" xmlns="http://www.w3.org/2000/svg" xmlns:xlink="http://www.w3.org/1999/xlink" x="0px" y="0px"
	 viewBox="0 0 1500 1610" style="enable-background:new 0 0 1500 1610;" xml:space="preserve">
<style type="text/css">
	.st0{fill:#78675D;}
	.st1{fill:none;}
</style>
<g>
	<g id="Capa_2_1_">
		<g id="noses_SELECT_SHAPE">
			<g id="_03-wide">
				<path class="st0" d="M843.7,835c-11.4-8-26.7-11.3-40.2-13.5c-15.7-2.5-31.8-3.6-47.7-5.1c-0.5-21.8-1.3-43.4-3.5-65.1
					c-0.1-2.6-2.4-4.7-5-4.6c-2.5,0.1-4.5,2.1-4.6,4.6h0c-1.8,24.1-2,47.8-1.9,72c0,4.4,3.5,7.2,7.6,7.6
					c25.8,2.4,52.4,3.4,76.2,15.3c9.4,4.7,12.7,10.7,12.6,21.4c0,10.2-5.7,13.5-14.2,17.2c-18.8,8.1-40.3,12-60.6,13
					c-12.1,0.6-24.3,0.1-36.2-2.5s-22.2-8.9-33.9-11.2c-7.2-1.5-15.5,6.5-10.5,13.6c17,24.6,59.5,25.6,86.5,23.5
					c25.4-2,55.8-7.2,77.3-22.1C865.4,885.3,863.1,848.5,843.7,835z"/>
				<rect class="st1" width="1500" height="1610"/>
			</g>
		</g>
	</g>
</g>
</svg>
