<?xml version="1.0" encoding="utf-8"?>
<!-- Generator: Adobe Illustrator 25.3.1, SVG Export Plug-In . SVG Version: 6.00 Build 0)  -->
<svg version="1.1" id="Capa_1" xmlns="http://www.w3.org/2000/svg" xmlns:xlink="http://www.w3.org/1999/xlink" x="0px" y="0px"
	 viewBox="0 0 1500 1610" style="enable-background:new 0 0 1500 1610;" xml:space="preserve">
<style type="text/css">
	.st0{fill:#78675D;}
	.st1{fill:none;}
</style>
<g>
	<g id="Capa_2_1_">
		<g id="noses_SELECT_SHAPE">
			<g id="_04-snub">
				<path class="st0" d="M824.9,865.8c-12.7-19.5-30.2-35.1-52.1-43.3c-5-1.9-11.7-2.3-14.7-6.8c-2.6-4-0.3-17.8-0.3-22.6
					c0-13.6,1.8-28.3-2-41.5c-1.9-6.5-11.5-6.6-13.3,0l0,0c-3.2,11.5-1.6,24.1-0.7,35.8c0.8,9.9,0.9,20.4,2.8,30.1
					c1.2,6.3,3.2,9.3,8.4,13c8.6,6.2,16.3,12.7,24.3,19.7c7.1,6,13.7,12.5,19.7,19.5c3.9,4.5,7.5,9.2,10.8,14.1
					c1.3,1.9,2.5,3.9,3.7,5.9c4.6-0.7,3.8-0.3-2.3,1.2c-22.7,7.4-46,4.1-68.9,8.3c-11.1,2.1-9.5,17.9,0,20.9
					c24.2,7.6,57-0.4,79.9-9.6C842.6,901.5,835.4,881.9,824.9,865.8z"/>
				<rect class="st1" width="1500" height="1610"/>
			</g>
		</g>
	</g>
</g>
</svg>
