<?xml version="1.0" encoding="utf-8"?>
<!-- Generator: Adobe Illustrator 25.3.1, SVG Export Plug-In . SVG Version: 6.00 Build 0)  -->
<svg version="1.1" id="Capa_1" xmlns="http://www.w3.org/2000/svg" xmlns:xlink="http://www.w3.org/1999/xlink" x="0px" y="0px"
	 viewBox="0 0 1500 1610" style="enable-background:new 0 0 1500 1610;" xml:space="preserve">
<style type="text/css">
	.st0{fill:#78675D;}
	.st1{fill:none;}
</style>
<g>
	<g id="Capa_2_1_">
		<g id="noses_SELECT_SHAPE">
			<g id="_05-small">
				<path class="st0" d="M800.8,834.8c-7.2-7.2-16.9-10.6-26.5-13.4c-3.9-1.2-7.8-2.3-11.7-3.5c-0.2-0.9-0.5-1.8-0.5-2.7
					c-0.4-11.5-2.5-23.1-3.4-34.6c-0.4-5.3-0.1-10.9-1.1-16.1c-0.9-4.7-2.3-5.2-4.3-9.1c-1.1-2.2-4.1-1.8-5.3,0l0,0
					c-4.4,6.5-5.1,9.1-5.1,17.8c0.1,9.9,0.7,19.8,1.9,29.7c1,9.4,0,23,8.9,28.4c14.8,9,42.8,14.9,38.4,38.4
					c-2.8,15.3-25.1,26-39.3,21.9c-11.4-3.3-12.6,16.3-2,14.9c12.8-1.7,23.2,2.6,36-2.8c7.1-3,13.3-7.8,18-13.9
					C817.4,873.2,815.8,849.6,800.8,834.8z"/>
				<rect class="st1" width="1500" height="1610"/>
			</g>
		</g>
	</g>
</g>
</svg>
