<svg xmlns="http://www.w3.org/2000/svg" viewBox="0 0 1500 1610"><defs><style>.cls-1{fill:#e15333;}.cls-2{fill:none;}</style></defs><g id="Capa_2" data-name="Capa 2"><g id="hair_SELECT_COLOR" data-name="hair // SELECT COLOR"><g id="_04-side_bangs" data-name="04-side bangs"><path id="_04-short-dark" data-name="04-short-dark" class="cls-1" d="M1215.53,375.22c-52.65-81.57-109.41-235.57-332-271.82S543.76,129,479.94,195.46c-50.95,53-54.15,66.47-54.15,66.47s-126.73-44-186.53,87.61c-109.81,241.68,36.11,497,36.11,497S306,695.33,341.55,597.26c54.16-149.54,114.33-229.6,114.33-229.6S515.46,477.7,659,526.27c133.88,45.31,162.46,27.19,162.46,6s-30.08-42.29-61.67-86.1-39.11-57.4-39.11-57.4S796.14,498.64,1026,512.67a974.24,974.24,0,0,0,109.62.71,845.49,845.49,0,0,1,42.72,103.45c27.19,81.57,41.06,229.67,41.06,229.67s52.9-133.53,58.94-248.33c2.44-46.33-.44-80.63-4.46-104.56,62.54-15.77,96.43-35.82,101.11-42.87C1384,437.15,1268.18,456.78,1215.53,375.22Z"/><rect class="cls-2" width="1500" height="1610"/></g></g></g></svg>