<svg xmlns="http://www.w3.org/2000/svg" viewBox="0 0 1500 1610"><defs><style>.cls-1{fill:#e15333;}.cls-2{fill:none;}</style></defs><g id="Capa_2" data-name="Capa 2"><g id="hair_SELECT_COLOR" data-name="hair // SELECT COLOR"><g id="_05-flattop" data-name="05-flattop"><path id="_07-short-dark" data-name="07-short-dark" class="cls-1" d="M1233.09,754.18c-2.25,36.42-6.72,61.32-15.48,59.76-24.27-4.35-60.12-151.23-79.08-231.75s-32.07-147.87-103.65-188.28-151.21,24.26-261.3,32C645,435,550.11,371.32,473,382.75S392.61,487.6,366.36,586.84,299,827.89,286.89,828c-10.23.09-17.58-23.94-21.84-75.45l.33.27c-6-102.75,5-186,16.36-258.62,27.91-178.33,46.76-263.42,113.2-307.34,91.49-60.47,598.55-116.3,750.52,41.87,88.72,92.35,86.79,366.77,86.88,526.07Z"/><rect class="cls-2" width="1500" height="1610"/></g></g></g></svg>