<svg xmlns="http://www.w3.org/2000/svg" viewBox="0 0 1500 1610"><defs><style>.cls-1{fill:#e15333;}.cls-2{fill:none;}</style></defs><g id="Capa_2" data-name="Capa 2"><g id="hair_SELECT_COLOR" data-name="hair // SELECT COLOR"><g id="_06-flattop-curly" data-name="06-flattop-curly"><path id="_05-short-dark" data-name="05-short-dark" class="cls-1" d="M255.82,740.2c3.76,73,14.51,88.17,26.62,88s57.64-142.19,83.91-241.42S395.9,361.18,473,349.76,648.2,456.12,773.58,426s189.73-105.43,261.3-65,84.68,140.76,103.65,221.28,68.82,220.1,93.09,224.42,20.94-178.36,23.13-262.12c2-77.16,8.69-154.19,5.19-231.43-1.39-30.94.74-68.2-16.63-95.36-8.56-13.38-23.68-21.08-39.56-17.56-18.83,4.17-30.28,15.58-50.77,8.09-36.47-13.34-20.84-40.9-53.51-52-31.31-10.64-63.24,35.65-93.72,16.16S980.92,111.74,946.07,109s-61.64,44.77-85.94,37.4-29.37-60.61-74.82-63.21-37.38,47.58-78.23,51-67.18-55.67-115.51-43-41.63,76.55-71.9,78.37-61.07-51.16-101.79-34-31.06,73.4-65.75,87.45-59.31-25.3-87.75,7S252.07,667.15,255.82,740.2Z"/><rect class="cls-2" width="1500" height="1610"/></g></g></g></svg>