<svg xmlns="http://www.w3.org/2000/svg" viewBox="0 0 1500 1610"><defs><style>.cls-1{fill:#e15333;}.cls-2{fill:none;}</style></defs><g id="Capa_2" data-name="Capa 2"><g id="hair_SELECT_COLOR" data-name="hair // SELECT COLOR"><g id="_09-bob" data-name="09-bob"><g id="_11-long-dark" data-name="11-long-dark"><path class="cls-1" d="M1091,534.59s15,69,45,130.57S1241.06,843.5,1241.06,843.5s9.47-48.41,14.73-105c18.71-9.78,40.49-13.16,62.29,1.08,1,.63,1.92,1.31,2.86,2-9.49-52.48-22-107.09-37.86-163.46C1212.54,327.47,1118,234.42,909.37,193.9c-204.75-39.77-456.26-1.5-576.32,169.59C247.75,485,201.58,613,178.89,741.71c1-.74,2-1.47,3-2.14,27.8-18.16,55.56-7.68,77,8.16,14,47.33,27.1,95.77,27.1,95.77s30.95-73.19,53-129c18.5-46.82,51.08-133.38,51.08-133.38s64.53-22.52,187.6-103.56S750.28,278,750.28,278s24,48,106.56,121.56S1091,534.59,1091,534.59Z"/><path class="cls-1" d="M1341.27,900.66c-12.85,22.08-33.59,37.88-63.39,39.91-32.82,2.25-54.87-2.25-69.75-9.24-21.09,70.41-56.52,132.33-108.51,176.73-70.5,60.21-155.61,97.26-243.75,113.28.21,13.08.39,28.41.48,44.22.06,12.84,0,26-.09,38.54,58.2,2.64,115.65,7.3,168.68,13.93,180.1,22.51,207.11,76.55,223.62,75s40.52-57,75-202.61C1342.13,1112.33,1349.39,1013.86,1341.27,900.66Z"/><path class="cls-1" d="M298.74,927.67c-14.67,9-38.34,15.51-76.62,12.9-27.72-1.89-47.61-15.69-60.59-35.38-1.55,35.72-1.82,71.32-1.08,106.67C165,1228,234,1354.05,234,1354.05s10.51,33,28.52,39,111.1-53.19,213.12-72c47.26-8.73,105.44-14.47,168.73-17.35.15-13,.45-26.36.82-39.29.45-16,1-31.14,1.5-43.8-88.11-16.71-169.86-54.09-232.53-110.28C360.45,1062.16,322.86,997.9,298.74,927.67Z"/></g><rect class="cls-2" width="1500" height="1610"/></g></g></g></svg>