<svg xmlns="http://www.w3.org/2000/svg" viewBox="0 0 1500 1610"><defs><style>.cls-1{fill:#e15333;}.cls-2{fill:#ea8770;}.cls-3{fill:none;}</style></defs><g id="Capa_2" data-name="Capa 2"><g id="hair_SELECT_COLOR" data-name="hair // SELECT COLOR"><g id="_19-long_pigtail" data-name="19-long pigtail"><g id="_19-tied-dark" data-name="19-tied-dark"><path class="cls-1" d="M1099.62,1108.06c-70.5,60.21-155.61,97.26-243.75,113.28.21,13.08.39,28.41.48,44.22.15,32.13-.15,66.24-1.71,88a455,455,0,0,1,54.48,7.44c20.58,4.17,40.77,10.11,59.49,18.57a181.15,181.15,0,0,1,47.1,30.15c64.74,58.32,55.83,200.25,55.83,200.25H427.83s-8.91-141.93,55.83-200.25a180.65,180.65,0,0,1,47.1-30.15c18.72-8.46,38.91-14.4,59.46-18.57a460,460,0,0,1,54.63-7.47c-1.05-23.58-.57-57.81.33-89.16.45-16,1-31.14,1.5-43.8-88.11-16.71-169.86-54.09-232.53-110.28C408,1104.77,402,1099,396.26,1093,380.12,1370.34,369,1610,369,1610h787.5s-7.1-246.51-23.31-535.67A302,302,0,0,1,1099.62,1108.06Z"/><path class="cls-1" d="M540.39,253c99.47-43.39,358.5-80.28,519.37,52.27-9.88-51.18-20.62-90.57-32.26-113.74C960.28,57.64,843.39,42.94,750.3,45c-109,2.46-244.3,42.44-287.42,248.8C489.67,276.2,515.93,263.65,540.39,253Z"/><path class="cls-2" d="M708.15,157.92c23.94-10.44,86.28-19.32,125,12.58-2.38-12.32-5-21.8-7.76-27.37-16.18-32.22-44.32-35.76-66.72-35.26-26.24.6-58.8,10.22-69.18,59.89A121.09,121.09,0,0,1,708.15,157.92Z"/><g id="_18-tied-dark" data-name="18-tied-dark"><path class="cls-1" d="M266.74,785.06c-14.68-4.65-31.05-59-20.18-195.55s97.11-343.34,295.77-415.34c212.31-76.95,445.34-29.34,558.67,72,111.46,99.65,155,218.34,162.67,328,6.55,93.27-2.56,203.81-19,210.9C1191,795.5,1188.7,545,1037,402.48c-84-79-187.09-85.06-288-87-266.32-5.07-362.75,199.5-400,274S299.67,795.5,266.74,785.06Z"/></g></g><rect class="cls-3" width="1500" height="1610"/></g></g></g></svg>