<svg xmlns="http://www.w3.org/2000/svg" viewBox="0 0 1500 1610"><defs><style>.cls-1{fill:#e15333;}.cls-2{fill:#ea8770;}.cls-3{fill:none;}</style></defs><g id="Capa_2" data-name="Capa 2"><g id="hair_SELECT_COLOR" data-name="hair // SELECT COLOR"><g id="_20-low_pigtails" data-name="20-low pigtails"><g id="_20-tied-dark" data-name="20-tied-dark"><path class="cls-1" d="M1232,766.77c18.82-19,41.26-35.64,49.87-36.49a693.26,693.26,0,0,0-21.23-155.53A513.44,513.44,0,0,0,1223,455.46c-74.63-164.24-165.67-254.57-291-285.93s-138.8,31.36-138.8,31.36,16.42-104.52-183.58-49.27-310.65,249-355.23,377.75a285.7,285.7,0,0,0-8.44,28.68A690.37,690.37,0,0,0,220.16,730.5c35.84,4.33,57.87,49.93,64.51,42.67,25.38-27.8,89.95-105.3,173.79-205.73C571.89,431.57,696.14,263.6,696.14,263.6s4.48,52.26-23.88,123.93S605.1,514.44,611.07,521.9,679.73,483.08,732,405.44,803.6,248.67,803.6,248.67s65.68,106,164.18,235.91S1199.13,760.8,1232,766.77Z"/><path class="cls-1" d="M1099.62,1108.06c-65,55.49-142.38,91.27-223.11,109.08a112.69,112.69,0,0,0,14.24,8.2c45.71,22,77.79,31.17,77.79,31.17l3.36,8.59s-9.78,51.37-19.18,108c5.39,2,10.7,4.11,15.89,6.45a181.15,181.15,0,0,1,47.1,30.15c43.1,38.83,53.56,114.71,55.73,161.1,32.86-9.92,60.83-25.19,65.76-44.08,9-34.34-2.23-85.2-48.88-171-41.42-76.15-72-103.77-63.06-123.18s111.17-22.41,203.55-231.8a621.76,621.76,0,0,0,22.81-59.92c-18.9-1-33-4.64-43.49-9.57C1187,1001.74,1151.61,1063.66,1099.62,1108.06Z"/><path class="cls-1" d="M298.74,927.67c-10.66,6.52-26.1,11.73-48.4,13.1a618.24,618.24,0,0,0,22.86,60.05c92.37,209.39,194.58,212.39,203.54,231.8s-21.64,47-63.06,123.18c-46.65,85.76-57.84,136.62-48.88,171,4.8,18.4,31.44,33.36,63.17,43.29,2.25-46.46,12.83-121.7,55.69-160.31a180.65,180.65,0,0,1,47.1-30.15c6-2.7,12.13-5.12,18.37-7.34-9.35-56.31-19-107.15-19-107.15l3.36-8.59s32.09-9.14,77.79-31.17a113.91,113.91,0,0,0,15.38-9c-80.42-18.34-154.6-54.15-212.48-106C360.45,1062.16,322.86,997.9,298.74,927.67Z"/><path class="cls-2" d="M476.37,1235.61c30.22,18.85,57.65,21.46,57.65,21.46s9.7,11.39,1.49,19.78c-4.5,4.61-17.54,3.36-35.45-2.42-25.32-8.18-33.21-17.73-33.21-22.21S471.69,1236.64,476.37,1235.61Z"/><path class="cls-2" d="M1025.63,1235.61c-30.22,18.85-57.64,21.46-57.64,21.46s-9.71,11.39-1.5,19.78c4.5,4.61,17.54,3.36,35.45-2.42,25.32-8.18,33.21-17.73,33.21-22.21S1030.31,1236.64,1025.63,1235.61Z"/></g><rect class="cls-3" width="1500" height="1610"/></g></g></g></svg>