<?xml version="1.0" encoding="utf-8"?>
<!-- Generator: Adobe Illustrator 25.3.1, SVG Export Plug-In . SVG Version: 6.00 Build 0)  -->
<svg version="1.1" id="Capa_1" xmlns="http://www.w3.org/2000/svg" xmlns:xlink="http://www.w3.org/1999/xlink" x="0px" y="0px"
	 viewBox="0 0 1500 1610" style="enable-background:new 0 0 1500 1610;" xml:space="preserve">
<style type="text/css">
	.st0{fill:#2A190C;}
	.st1{opacity:0.4;fill:#FFFFFF;enable-background:new    ;}
	.st2{fill:#462E21;}
	.st3{fill:none;}
</style>
<g>
	<g id="Capa_2_1_">
		<g id="glasses_SELECT_SHAPE">
			<g id="dark">
				<g id="_04-sunglasses">
					<g>
						<path class="st0" d="M1150.2,703c-0.6-19.6,4-79-46.4-83.5c-14.6-1.3-31.1-2.3-48.7-2.9c-5.7-0.2-11.4-0.4-17.3-0.5
							c-10.5-0.2-21.2-0.4-31.9-0.4c-12,0-24.1,0.2-35.9,0.5c-16.3,0.5-32,1.2-46.6,2.4c-33.7,2.6-60.8,7.1-72.2,13.9
							c-18.3,10.8-23.7,45.1-15.9,101.9c1.1,8.3,2.7,16.6,4.8,24.8c4.6,19.2,12,37.5,22,54.5c9.5,16,21.2,29.6,34.4,40
							c3.6,2.8,7.3,5.4,11.1,7.9c5.3,3.4,10.9,6.5,16.6,9.2c31.5,15,68.8,20.1,103.4,13.3c76.3-15.1,101.3-62.5,113.5-96.8
							C1151.8,757.2,1150.8,724.6,1150.2,703z"/>
					</g>
					<g>
						<path class="st0" d="M649.3,632.3c-13.9-8.2-51.2-13.1-95.2-15.3c-5.6-0.3-11.4-0.5-17.2-0.7c-13.8-0.5-28-0.7-42.1-0.7
							c-8.5,0-17,0.1-25.4,0.2c-16.1,0.3-31.8,0.9-46.4,1.7l0,0c-9.2,0.5-17.9,1.2-26.1,1.9c-50.4,4.5-45.8,64-46.4,83.5
							c-0.3,10.2-0.7,23,0.1,36.7c0.9,15.2,3.2,31.7,8.8,47.4c2,5.5,4.2,11.3,6.9,17.2c8.3,18.1,21.1,37.5,42.7,53.2
							c5.1,3.7,10.5,7.1,16.1,10c13.2,7,28.9,12.7,47.8,16.4c45.5,9,95.7-2.7,131.1-30.4c32-25,54.3-68.5,61.2-119.3
							C673,677.4,667.7,643.2,649.3,632.3z"/>
					</g>
					<path class="st1" d="M970,616.1L862.2,813.6c-10-17-17.4-35.4-22-54.5l83.3-140.6C938,617.3,953.8,616.5,970,616.1z"/>
					<path class="st1" d="M1055.1,616.5L924.3,870.6c-5.7-2.7-11.2-5.8-16.6-9.2c33.4-64.4,95-180.9,130-245.5
						C1043.6,616.1,1049.4,616.3,1055.1,616.5z"/>
					<path class="st1" d="M469.4,615.8l-103,188.5c-2.7-5.9-5-11.8-6.9-17.2c-5.6-15.8-8-32.2-8.8-47.4L423,617.6l0,0
						C437.6,616.7,453.3,616.2,469.4,615.8z"/>
					<path class="st1" d="M554.1,617L425.2,867.6c-5.6-3-11-6.3-16.1-10c32.6-63,92.4-175.8,127.8-241.2
						C542.7,616.5,548.4,616.7,554.1,617z"/>
					<path class="st2" d="M1283.8,678.6c-3-8.8-12.7-13.6-21.5-10.5l-89.1,30.5c-0.1-2.7-0.1-5.4-0.1-7.5
						c13.1-7.8,33.2-26.1,30-49.6c-4.2-30.9-41.2-40.3-99.5-45.5c-68.8-6.2-221.4-7.9-262.1,16.2c-34.5,20.4-34.7,72.1-30,113.9
						c-16-8.5-37.5-13-56.2-13.8c-23.7-1-46.4,5.2-63.8,17.4c-1,0.7-2,1.4-2.9,2.1c5.3-42.8,6.7-98.3-29.4-119.7
						c-40.7-24-193.2-22.3-262.1-16.2c-58.3,5.2-95.3,14.7-99.5,45.5c-3.2,23.5,16.9,41.8,30,49.6c0,2.2,0,5-0.1,7.8L237.5,668
						c-8.7-3.4-18.5,1-21.9,9.7c-3.4,8.7,1,18.5,9.7,21.9c0.4,0.1,0.8,0.3,1.2,0.4l100.8,34.5c0.7,18.5,3.1,40,10.4,60.6
						c8,22.9,32.6,92.5,130.7,111.8c11.6,2.3,23.3,3.4,35.1,3.4c41.3,0,83-13.5,114.5-38.2c26.5-20.7,43.2-47.6,53.7-73.3l2.2-3.4
						c20.1-31.8,51.5-63.1,96.2-51.9c26.8,6.7,39.2,15.7,52.4,36.7c9.6,30.7,27.4,66.1,60.4,91.9c31.5,24.7,73.1,38.2,114.5,38.2
						c11.8,0,23.5-1.1,35.1-3.4c98.1-19.3,122.7-88.9,130.8-111.8c7.3-20.8,9.8-42.3,10.4-61l99.7-34.2
						C1282,697,1286.7,687.4,1283.8,678.6z M601.3,850.9c-34.5,27-83.4,38.3-127.7,29.6c-74.4-14.7-98.7-60.8-110.5-94.3
						c-10.3-29.2-9.4-61-8.7-82c0.6-19.1-3.9-77,45.2-81.4c27-2.4,61.1-3.8,95.3-3.8c65.3,0,131.3,4.9,150.6,16.3
						c17.9,10.5,23.1,44,15.5,99.3C654.2,784.2,632.4,826.6,601.3,850.9z M1137.6,786.2c-11.8,33.5-36.2,79.6-110.6,94.3
						c-44.3,8.8-93.2-2.6-127.7-29.6c-31.1-24.4-52.9-66.7-59.7-116.2c-7.6-55.4-2.4-88.8,15.5-99.3c19.3-11.4,85.3-16.3,150.6-16.3
						c34.2,0,68.3,1.3,95.3,3.8c49.1,4.4,44.6,62.3,45.2,81.4C1147,725.3,1147.9,757,1137.6,786.2z"/>
				</g>
				<rect class="st3" width="1500" height="1610"/>
			</g>
		</g>
	</g>
</g>
</svg>
