<svg xmlns="http://www.w3.org/2000/svg" viewBox="0 0 1500 1610"><defs><style>.cls-1{fill:#fff;}.cls-2{fill:#517838;}.cls-3{fill:none;}</style></defs><g id="Capa_2" data-name="Capa 2"><g id="eyes_SELECT_COLOR" data-name="eyes // SELECT COLOR"><g id="green"><g id="green-2" data-name="green"><path class="cls-1" d="M649.44,689.35c-5.77-17.66-15.65-33.72-29.69-45.51C595,623.09,558.09,617.68,526.49,620c-27,2-54,12-73.33,31-15.65,15.29-25.78,35.79-30,57.25-9.09,46.14,10.15,98.7,49.76,125.08,62.29,41.49,155.08-1.67,177-68.72C657.52,741.21,657.41,713.76,649.44,689.35Z"/><path class="cls-2" d="M649.88,764.6c7.64-23.39,7.53-50.84-.44-75.25-5.77-17.66-15.65-33.72-29.69-45.51A87.54,87.54,0,0,0,603,632.92c-60.15-13.31-134.5,11.2-143,77-5.3,41.17,12.56,86.86,47.86,109.7,22,14.22,46.32,19.61,70.9,19C611.54,824.39,639.19,797.37,649.88,764.6Z"/><path class="cls-1" d="M513,694.24c-.44,4.63.64,9.85,4.42,12.56a13.61,13.61,0,0,0,7.47,2.14c14,.55,27.51-11.07,29-25.06C557.07,654.38,515.06,672.69,513,694.24Z"/><path class="cls-1" d="M850.56,689.35c5.77-17.66,15.65-33.72,29.69-45.51C905,623.09,941.91,617.68,973.51,620c27,2,54,12,73.33,31,15.65,15.29,25.78,35.79,30,57.25,9.09,46.14-10.15,98.7-49.76,125.08-62.29,41.49-155.08-1.67-177-68.72C842.48,741.21,842.59,713.76,850.56,689.35Z"/><path class="cls-2" d="M850.12,764.6c-7.64-23.39-7.53-50.84.44-75.25,5.77-17.66,15.65-33.72,29.69-45.51A87.54,87.54,0,0,1,897,632.92c60.15-13.31,134.5,11.2,143,77,5.3,41.17-12.56,86.86-47.86,109.7-22,14.22-46.32,19.61-70.9,19C888.46,824.39,860.81,797.37,850.12,764.6Z"/><path class="cls-1" d="M882.17,689.05c-.44,4.63.64,9.85,4.42,12.56a13.59,13.59,0,0,0,7.47,2.14c14.05.55,27.51-11.08,29-25.06C926.26,649.19,884.25,667.5,882.17,689.05Z"/></g><rect class="cls-3" width="1500" height="1610"/></g></g></g></svg>