<svg xmlns="http://www.w3.org/2000/svg" viewBox="0 0 1500 1610"><defs><style>.cls-1{fill:#ffd419;}.cls-2{fill:#ffe98c;}.cls-3{fill:none;}</style></defs><g id="Capa_2" data-name="Capa 2"><g id="clothes_SELECT_SHAPE" data-name="clothes // SELECT SHAPE"><g id="yellow"><g id="_08-round-lapels-blue" data-name="08-round-lapels-blue"><path id="_06-lapels-blue" data-name="06-lapels-blue" class="cls-1" d="M1015.71,1409.74a181.15,181.15,0,0,0-47.1-30.15c-18.72-8.46-38.91-14.4-59.49-18.57a443.86,443.86,0,0,0-50.91-7.14c-1-.1-2-.17-3-.25C834.5,1411.5,788.49,1426.5,751,1426.5s-84-13.5-106.32-72.93a459,459,0,0,0-54.46,7.45c-20.55,4.17-40.74,10.11-59.46,18.57a180.65,180.65,0,0,0-47.1,30.15C418.92,1468.06,427.83,1610,427.83,1610h643.71S1080.45,1468.06,1015.71,1409.74Z"/><path class="cls-2" d="M856.51,1340.5s-1.42,33.44-34,57.5c-40.7,30.06-103.81,30.06-144.51,0-32.58-24.06-34-57.5-34-57.5s-36,21.5-34.5,67.5c1.92,58.73,59,80,98.5,67.5,34-10.77,41-34.09,42.25-45.27,1.31,11.18,8.21,34.5,42.26,45.27,39.5,12.5,96.59-8.77,98.5-67.5C892.51,1362,856.51,1340.5,856.51,1340.5Z"/></g><rect class="cls-3" width="1500" height="1610"/></g></g></g></svg>