<svg xmlns="http://www.w3.org/2000/svg" viewBox="0 0 1500 1610"><defs><style>.cls-1{fill:#fff4c6;}.cls-2{fill:#ffd419;}.cls-3{fill:none;}</style></defs><g id="Capa_2" data-name="Capa 2"><g id="clothes_SELECT_SHAPE" data-name="clothes // SELECT SHAPE"><g id="yellow"><g id="_10-beisbol-Tshirt" data-name="10-beisbol-Tshirt"><path class="cls-1" d="M1071.54,1610H427.83s-8.91-141.93,55.83-200.25a180.65,180.65,0,0,1,47.1-30.15c18.72-8.46,38.91-14.4,59.46-18.57,7.65-1.56,15.36-2.88,23-4,9.9-1.44,19.77-2.49,29.52-3.3.63-.09,1.26-.12,1.89-.18,25.83,30.42,67.8,48.93,105.33,48.93s77-17.52,105.24-48.87c1,.06,2,.15,3,.24,10,.84,20.07,2,30.15,3.51q10.39,1.53,20.76,3.63c20.58,4.17,40.77,10.11,59.49,18.57a181.15,181.15,0,0,1,47.1,30.15C1080.45,1468.06,1071.54,1610,1071.54,1610Z"/><path class="cls-2" d="M888.36,1357.39c-15.39,31.56-54.48,86.1-140.7,86.1-92,0-124.23-58.29-134.4-86.43,10.53-1.53,21-2.64,31.41-3.48,25.83,30.42,67.8,48.93,105.33,48.93s77-17.52,105.24-48.87c1,.06,2,.15,3,.24C868.2,1354.72,878.28,1355.86,888.36,1357.39Z"/><path class="cls-2" d="M643.68,1360.84,553.17,1610H427.83s-8.91-141.93,55.83-200.25a180.65,180.65,0,0,1,47.1-30.15c18.72-8.46,38.91-14.4,59.46-18.57,7.65-1.56,15.36-2.88,23-4,9.9-1.44,19.77-2.49,29.52-3.3A59.25,59.25,0,0,1,643.68,1360.84Z"/><path class="cls-2" d="M855.69,1360.84,946.2,1610h125.34s8.91-141.93-55.83-200.25a180.65,180.65,0,0,0-47.1-30.15c-18.72-8.46-38.91-14.4-59.46-18.57-7.65-1.56-15.36-2.88-23-4-9.9-1.44-19.77-2.49-29.52-3.3A59.25,59.25,0,0,0,855.69,1360.84Z"/></g><rect class="cls-3" width="1500" height="1610"/></g></g></g></svg>