<svg xmlns="http://www.w3.org/2000/svg" viewBox="0 0 1500 1610"><defs><style>.cls-1{fill:#ec5355;}.cls-2{fill:none;}</style></defs><g id="Capa_2" data-name="Capa 2"><g id="clothes_SELECT_SHAPE" data-name="clothes // SELECT SHAPE"><g id="red"><path id="_09-sleeveless-blue" data-name="09-sleeveless-blue" class="cls-1" d="M546,1468.5c8.1,34.74,6.71,101.22,4.9,141.49H938.83c-1.81-40.27-3.2-106.75,4.9-141.49a215.48,215.48,0,0,1,38.74-82q-6.78-3.69-13.86-6.89c-18.72-8.46-38.91-14.4-59.49-18.57C877,1435.5,810,1486.5,750,1486.5c-57,0-137-51-159.78-125.48-20.55,4.17-40.74,10.11-59.46,18.57a199.82,199.82,0,0,0-20.59,10.73A216.53,216.53,0,0,1,546,1468.5Z"/><rect class="cls-2" width="1500" height="1610"/></g></g></g></svg>