<svg xmlns="http://www.w3.org/2000/svg" viewBox="0 0 1500 1610"><defs><style>.cls-1{fill:#462e21;}.cls-2{fill:#fff;}.cls-3{fill:none;}</style></defs><g id="Capa_2" data-name="Capa 2"><g id="mouth_SELECT_SHAPE" data-name="mouth // SELECT SHAPE"><g id="_06-only_teeth" data-name="06-only teeth"><g id="_06-only_teeth-2" data-name="06-only teeth"><path class="cls-1" d="M934.42,954.48s-80.67,15.23-203.69,15.75-182.19-24.56-190.31-11.92,53.5,123.53,222.23,116.23S962.81,961.18,960.79,953.42,934.42,954.48,934.42,954.48Z"/><path class="cls-2" d="M641.06,976.7c15.57,10.14,35.1,16.23,53.71,20a266.25,266.25,0,0,0,28.35,4.24,226.77,226.77,0,0,0,33.13.91c29.27-1.11,60.68-6.23,87.14-19.39a70,70,0,0,0,23.29-19.11c-34.63,3.43-81.06,6.6-135.95,6.83a844.89,844.89,0,0,1-104.4-5.92A72.8,72.8,0,0,0,641.06,976.7Z"/></g><rect class="cls-3" width="1500" height="1610"/></g></g></g></svg>