<svg xmlns="http://www.w3.org/2000/svg" viewBox="0 0 1500 1610"><defs><style>.cls-1{fill:#462e21;}.cls-2{fill:#ee6466;}.cls-3{fill:#fff;}.cls-4{fill:none;}</style></defs><g id="Capa_2" data-name="Capa 2"><g id="mouth_SELECT_SHAPE" data-name="mouth // SELECT SHAPE"><g id="_07-small_open" data-name="07-small open"><g id="_07-small_open-2" data-name="07-small open"><path class="cls-1" d="M871.3,965.1s-243.64,6.41-245.4,15.79S650.27,1105.79,760,1097.1,871.3,965.1,871.3,965.1Z"/><path class="cls-2" d="M792.71,1079.23c-21.89-8.93-46.91-8-68.94.82a107.77,107.77,0,0,0-18.62,9.71c15.41,6,33.52,9,54.82,7.34,17.34-1.37,32-5.63,44.33-11.79A71.8,71.8,0,0,0,792.71,1079.23Z"/><path class="cls-3" d="M699.22,990.78c22.78,12.78,49.52,9.41,73.42,1.91,10.5-3.29,20.81-8.27,28.67-16.11a35.51,35.51,0,0,0,6.77-9.47c-40.2,1.44-91.63,3.61-129.59,6.32A74.35,74.35,0,0,0,699.22,990.78Z"/></g><rect class="cls-4" width="1500" height="1610"/></g></g></g></svg>