<svg xmlns="http://www.w3.org/2000/svg" viewBox="0 0 1500 1610"><defs><style>.cls-1{fill:#462e21;}.cls-2{fill:#ee6466;}.cls-3{fill:#fff;}.cls-4{fill:none;}</style></defs><g id="Capa_2" data-name="Capa 2"><g id="mouth_SELECT_SHAPE" data-name="mouth // SELECT SHAPE"><g id="_08-medium_open" data-name="08-medium open"><g id="_08-medium_open-2" data-name="08-medium open"><path class="cls-1" d="M923.94,956.54s-347.3,1.73-347.56,12.92,64,135.54,186.22,125.14C888.56,1083.9,923.94,956.54,923.94,956.54Z"/><path class="cls-2" d="M800.39,1064.11c-32.93-5-66.56-4.44-99.15,2.64a284.45,284.45,0,0,0-30.79,8.57,162.35,162.35,0,0,0,92.15,19.28,170.45,170.45,0,0,0,72.87-22.8A295.82,295.82,0,0,0,800.39,1064.11Z"/><path class="cls-3" d="M629.06,969.14c.33.54.44.73.47.8a6.93,6.93,0,0,1,.6.66c.71.84,1.41,1.67,2.16,2.47s1.55,1.59,2.36,2.35c.27.25,1.45,1.25,1.77,1.55a64.07,64.07,0,0,0,5.45,3.81c2.08,1.29,4.24,2.47,6.44,3.56l1.71.82.07,0,.1,0c1.19.52,2.4,1,3.62,1.49,20.11,7.83,40.07,9.83,61.49,10.65,11.84.46,23.71.34,35.55-.19q8.67-.4,17.32-1.08,4.37-.35,8.71-.76c1.43-.13,2.85-.27,4.28-.42l3-.31a426,426,0,0,0,54.18-9.08c10-2.44,20-5.95,27.57-13a36.46,36.46,0,0,0,9.62-15.62c-66,.66-183.37,2.3-249.78,6.08.07.16.13.32.2.47A54.87,54.87,0,0,0,629.06,969.14Z"/></g><rect class="cls-4" width="1500" height="1610"/></g></g></g></svg>