<svg xmlns="http://www.w3.org/2000/svg" viewBox="0 0 1500 1610"><defs><style>.cls-1{fill:#462e21;}.cls-2{fill:#fff;}.cls-3{fill:#ee6466;}.cls-4{fill:none;}</style></defs><g id="Capa_2" data-name="Capa 2"><g id="mouth_SELECT_SHAPE" data-name="mouth // SELECT SHAPE"><g id="_09-angular_open" data-name="09-angular open"><g id="_09-angular_open-2" data-name="09-angular open"><path class="cls-1" d="M917.81,960.41c.53,9.79-81,136.21-183.38,136.14S574.3,962.16,571,952.52,917.28,950.62,917.81,960.41Z"/><path class="cls-2" d="M858.39,967.66a7.56,7.56,0,0,1-1.38.67c-1,.42-2,.81-3,1.17a64.7,64.7,0,0,1-6.24,1.85c-10.81,2.65-22.2,3.14-33.24,4.23-13.28,1.31-26.57,2.47-39.88,3.26a679.62,679.62,0,0,1-82.36-.24c-13.82-.85-27.61-2.12-41.36-3.69-8.94-1-17.57-2.44-25.37-7.16-7.28-4.4-12.13-11.33-15.58-19.17,64.56-1.65,193.22,1.15,262,5.68a50.88,50.88,0,0,1-5.84,7.55A27.61,27.61,0,0,1,858.39,967.66Z"/><path class="cls-3" d="M655.65,1042.19c16.78-.6,33.49,1.8,49.84,5.34s32.31,8.53,47.28,16.46a172.59,172.59,0,0,1,32.63,22.49,139.76,139.76,0,0,1-51,10.07c-42.38,0-77.11-23.07-103.5-50.75A106.83,106.83,0,0,1,655.65,1042.19Z"/></g><rect class="cls-4" width="1500" height="1610"/></g></g></g></svg>