<svg xmlns="http://www.w3.org/2000/svg" viewBox="0 0 1500 1610"><defs><style>.cls-1{fill:#462e21;}.cls-2{fill:#fff;}.cls-3{fill:#ee6466;}.cls-4{fill:none;}</style></defs><g id="Capa_2" data-name="Capa 2"><g id="mouth_SELECT_SHAPE" data-name="mouth // SELECT SHAPE"><g id="_10-baby" data-name="10-baby"><g id="_10-baby-2" data-name="10-baby"><path class="cls-1" d="M845.84,953.36s-216.4-6.25-222.64,4.16S608.63,1127.1,746,1133.34s128-173.74,122.76-177.9S845.84,953.36,845.84,953.36Z"/><path class="cls-2" d="M670.77,952.13a29.13,29.13,0,0,0,3.55,9.08,45.54,45.54,0,0,0,13.16,14.38c12.16,8.58,25.78,12.68,40.75,15.21a176.23,176.23,0,0,0,46.78,1c3.3-.36,6-.74,9.94-1.46,3.6-.66,7.17-1.44,10.71-2.37,3.18-.85,6.34-1.81,9.44-2.92.81-.29,1.62-.59,2.42-.91l1.53-.63c1.17-.52,2.32-1,3.46-1.62C824.65,975.72,830,965,831.66,953c-31.76-.77-109.79-2.37-160.89-.86Z"/><path class="cls-3" d="M799.24,1108.57c-13.29-11.8-30-20.79-47.7-23.56-12.4-1.94-24.7-.16-36.43,2.51-14.06,3.21-27.82,8.2-39.84,16.26-1.44,1-2.95,2.1-4.43,3.3,18.16,14.68,42.53,24.78,75.12,26.26,26.18,1.19,47-4.4,63.59-14.24A104.6,104.6,0,0,0,799.24,1108.57Z"/></g><rect class="cls-4" width="1500" height="1610"/></g></g></g></svg>