<svg xmlns="http://www.w3.org/2000/svg" viewBox="0 0 1500 1610"><defs><style>.cls-1{fill:#462e21;}.cls-2{fill:#fff;}.cls-3{fill:#ee6365;}.cls-4{fill:none;}</style></defs><g id="Capa_2" data-name="Capa 2"><g id="mouth_SELECT_SHAPE" data-name="mouth // SELECT SHAPE"><g id="_11-slant_open" data-name="11-slant open"><g id="_11-slant_open-2" data-name="11-slant open"><path class="cls-1" d="M619.59,939.5S881.07,966,887.09,990.11s-37.35,149.42-151.83,141S605.13,1005.77,602.72,979.26,607.54,939.5,619.59,939.5Z"/><path class="cls-2" d="M815.57,990c-25.81,13.8-59.17,13.59-87.47,5.75-14.3-4-27.47-9.71-39.53-18.93-6-4.56-12.39-12-14.84-20.62A49.59,49.59,0,0,1,672,945.37c48.12,5.75,118.87,15.13,166,25.58A66.6,66.6,0,0,1,815.57,990Z"/><path class="cls-3" d="M659.14,1092a87.91,87.91,0,0,1,37.77-17.23c15.75-2.92,32-.63,47.29,3.38,24.85,6.51,46.2,19.5,62.06,38.77-19.71,10.33-43.24,16.19-71,14.14-36.27-2.67-62.6-16.25-81.75-34.37C655.34,1095.1,657.21,1093.53,659.14,1092Z"/></g><rect class="cls-4" width="1500" height="1610"/></g></g></g></svg>