<svg xmlns="http://www.w3.org/2000/svg" viewBox="0 0 1500 1610"><defs><style>.cls-1{fill:#462e21;}.cls-2{fill:#ee6466;}.cls-3{fill:#fff;}.cls-4{fill:none;}</style></defs><g id="Capa_2" data-name="Capa 2"><g id="mouth_SELECT_SHAPE" data-name="mouth // SELECT SHAPE"><g id="_12-wide_open" data-name="12-wide open"><g id="_12-wide_open-2" data-name="12-wide open"><path class="cls-1" d="M596.46,947.62c-22.18,18.32-23.34,95.48,15.36,128.21,43.73,37,142.19,65,235.42,19.84,94.6-45.85,75.07-120.57,64.83-132.78S618.64,929.31,596.46,947.62Z"/><path class="cls-2" d="M837.31,1086.74a57.29,57.29,0,0,0-5.14-5.2c-1.39-1.24-4.15-3.43-4.63-3.76-14.79-10.3-33.46-13.64-51.82-14.58-19.18-1-38.61.54-57.76,1.65-17.24,1-36.15,2.64-51,9.68-7.14,3.39-12.31,7.27-16.1,13.06a28.3,28.3,0,0,0-4.25,10c49.91,23.48,125.05,33.29,197.47-.51A67.07,67.07,0,0,0,837.31,1086.74Z"/><path class="cls-3" d="M637.86,944.28a74.59,74.59,0,0,0,4.35,6.8,63.56,63.56,0,0,0,10.06,11.17q3.27,3,6.81,5.78c.67.52,1.35,1,2,1.54l.93.67q1.63,1.14,3.3,2.22a134.55,134.55,0,0,0,13.93,7.84c2.81,1.38,5.68,2.67,8.58,3.88,3.08,1.29,2.55,1.09,6.08,2.35a192.91,192.91,0,0,0,34.49,8.68q2.72.42,5.43.79l1,.12,2.13.24c2.81.3,5.63.55,8.45.73q9.3.61,18.64.43c6-.12,12-.5,18-1.15l2-.24,1.41-.19c1.49-.21,3-.43,4.47-.68q4-.66,8-1.52a157.52,157.52,0,0,0,16.92-4.58c1.48-.49,3-1,4.41-1.55l1.09-.41,1.05-.42c2.46-1,4.89-2.09,7.28-3.24a117,117,0,0,0,13.73-7.9l.72-.47a2.47,2.47,0,0,1,.36-.29l1.15-.86c1-.79,2.06-1.6,3.07-2.44q2.85-2.37,5.48-5c1-1,2-2,2.91-3,.2-.22,1.22-1.42,1.57-1.82,1.5-1.86,2.94-3.77,4.25-5.75.64-1,1.17-2,1.76-3-62.31-7.69-169.1-14.52-227.48-12C636.71,942.13,637.26,943.21,637.86,944.28Z"/></g><rect class="cls-4" width="1500" height="1610"/></g></g></g></svg>