<svg xmlns="http://www.w3.org/2000/svg" viewBox="0 0 1500 1610"><defs><style>.cls-1{fill:#462e21;}.cls-2{fill:#ee6466;}.cls-3{fill:#fff;}.cls-4{fill:none;}</style></defs><g id="Capa_2" data-name="Capa 2"><g id="mouth_SELECT_SHAPE" data-name="mouth // SELECT SHAPE"><g id="_13-extra_wide" data-name="13-extra wide"><g id="_13-extra_wide-2" data-name="13-extra wide"><path class="cls-1" d="M670,948.53C618,934,566.59,898.8,535.88,932.83c-35.69,39.55-30,133.71,104.19,181.69,126.68,45.29,227.5,23,294.81-23.86,72.88-50.73,73.49-114.81,15.3-147-45.9-25.37-79.72,6-134.07,16.91C781.62,967.51,721.89,963,670,948.53Z"/><path class="cls-2" d="M766.8,1102.23c-20.2-7-42-7.78-63.21-6.19-20.28,1.53-41.53,5.63-60.42,14.15q-3.21,1.45-6.36,3.09c1.1.41,2.14.84,3.26,1.24,65,23.23,123.15,28.65,173.49,22.12C801.67,1121.12,785.49,1108.71,766.8,1102.23Z"/><path class="cls-3" d="M594.7,934.09c1.36,10.5,7.54,19.47,15.51,26.54C627.63,976.11,651.5,981.9,674,985c29.8,4.08,59.95,6.67,90,6.37,29.46-.31,59.9-3.12,87.76-13.3,10.91-4,21-11.89,26.69-22.09a28.69,28.69,0,0,0,3.72-16.15c-19.76,6.16-40.67,15.72-66.07,20.8-34.49,6.9-94.22,2.42-146.16-12.08-25.94-7.24-51.76-19.65-74.92-26A39.81,39.81,0,0,0,594.7,934.09Z"/></g><rect class="cls-4" width="1500" height="1610"/></g></g></g></svg>