<svg xmlns="http://www.w3.org/2000/svg" viewBox="0 0 1500 1610"><defs><style>.cls-1{fill:#ec5355;}.cls-2{fill:#f17e80;}.cls-3{fill:none;}</style></defs><g id="Capa_2" data-name="Capa 2"><g id="clothes_SELECT_SHAPE" data-name="clothes // SELECT SHAPE"><g id="red"><g id="_07-lapels-blue" data-name="07-lapels-blue"><path id="_06-lapels-blue" data-name="06-lapels-blue" class="cls-1" d="M1015.71,1409.74a181.15,181.15,0,0,0-47.1-30.15c-18.72-8.46-38.91-14.4-59.49-18.57a443.86,443.86,0,0,0-50.91-7.14c-1-.1-2-.17-3-.25C827,1385,787.49,1414.5,750,1414.5s-79.5-30.5-105.32-60.93a459,459,0,0,0-54.46,7.45c-20.55,4.17-40.74,10.11-59.46,18.57a180.65,180.65,0,0,0-47.1,30.15C418.92,1468.06,427.83,1610,427.83,1610h643.71S1080.45,1468.06,1015.71,1409.74Z"/><path class="cls-2" d="M643.67,1296.5s0,26.14,38.9,65.06c24.33,24.33,72.24,50.16,72.24,50.16l-71.88,89.59s-56.87-58.53-76.94-110.38S643.67,1296.5,643.67,1296.5Z"/><path class="cls-2" d="M857,1296.17s.71,26.47-38.22,65.39c-24.33,24.33-72.24,50.16-72.24,50.16l71.88,89.59s56.87-58.53,76.94-110.38S857,1296.17,857,1296.17Z"/></g><rect class="cls-3" width="1500" height="1610"/></g></g></g></svg>