<svg xmlns="http://www.w3.org/2000/svg" viewBox="0 0 1500 1610"><defs><style>.cls-1{fill:#a8552d;}.cls-2{fill:#c2886c;}.cls-3{fill:none;}</style></defs><g id="Capa_2" data-name="Capa 2"><g id="hair_SELECT_COLOR" data-name="hair // SELECT COLOR"><g id="brown_SELECT_LENGTH" data-name="brown // SELECT LENGTH"><g id="long_SELECT_HAIRSTYLE" data-name="long // SELECT HAIRSTYLE"><g id="_18-braids" data-name="18-braids"><g id="_18-tied-dark" data-name="18-tied-dark"><path class="cls-1" d="M266.74,785.06c-13.43-7.53-31.05-59-20.18-195.55s97.11-343.34,295.77-415.34c212.31-76.95,445.34-29.34,558.67,72,111.46,99.65,155,218.34,162.67,328,6.55,93.27-13.5,191.23-19,210.89s-57.58-133.94-89.29-195.56S875,449.5,751,275.5c-128,160-364.75,239.5-402,314S283.69,794.58,266.74,785.06Z"/><path class="cls-1" d="M1378.43,1461c-2.71-10-5.21-20.15-8.47-30-6-18.19-16-34.36-31.93-45.44a73.12,73.12,0,0,0-38.8-12.85c2.55-2.43,4.87-5,6.8-7.25a88.06,88.06,0,0,0,13.59-19.93c12-25.52,6.59-54.53-6.32-79.32-17-32.72-38.35-40.1-47-43.82a73,73,0,0,0,12.83-28.68,79.47,79.47,0,0,0-15.72-65.45,108.81,108.81,0,0,0-25.17-23.23c-8.72-5.67-18.31-9-27.73-13,4-4.22,7.23-9.31,10.28-14.23a79.32,79.32,0,0,0,8.78-21.06c7.68-28.32,3.62-59.15-7.63-86a207.36,207.36,0,0,0-16.49-30.91c-21.35,66.86-56,125.6-105.82,168.19q-13.8,11.79-28.34,22.38,3.75,3.48,7.82,6.65a117.15,117.15,0,0,0,29.93,17c-.14.54-.31,1.07-.43,1.61-7.29,31.85,2.9,67.12,24.08,91.67,14.13,16.39,33.12,21.8,53,22-7,30.74.54,65.61,19.32,90.84,10.24,13.76,24.18,25.21,41.25,29,1.24.28,2.48.5,3.72.7a66.41,66.41,0,0,0-5.25,5.23c-25.34,28.51-27.14,68.68-21.36,104.59.85,5.27,1.67,10.55,2.51,15.82.63,4,1,8.06,2.84,11.69,3.94,7.78,13.28,9.41,21,11.25a135.27,135.27,0,0,0,47.49,2.6c31.4-3.84,62.61-19.12,84-42.56C1384,1495.42,1381,1470.27,1378.43,1461Z"/><path class="cls-1" d="M401.21,1154.07a117.32,117.32,0,0,0,29.93-17c2.63-2,5.15-4.2,7.59-6.44q-12.72-9.72-24.58-20.34c-50.14-45-86.22-104-110.42-168.75a203.79,203.79,0,0,0-15.42,29.22c-11.25,26.8-15.31,57.63-7.63,86a79,79,0,0,0,8.78,21.06c3,4.92,6.24,10,10.28,14.23-9.42,4-19,7.35-27.73,13a108.61,108.61,0,0,0-25.17,23.23,79.48,79.48,0,0,0-15.73,65.45A73,73,0,0,0,244,1222.4c-8.66,3.72-30,11.1-47,43.82-12.91,24.79-18.35,53.8-6.33,79.32a88.1,88.1,0,0,0,13.6,19.93c1.93,2.21,4.25,4.82,6.8,7.25a73.06,73.06,0,0,0-38.8,12.85c-15.92,11.08-25.91,27.25-31.94,45.44-3.25,9.83-5.75,20-8.46,30-2.52,9.28-5.58,34.43-2.77,37.5,21.41,23.44,52.62,38.72,84,42.56a135.26,135.26,0,0,0,47.49-2.6c7.75-1.84,17.1-3.47,21-11.25,1.83-3.63,2.22-7.74,2.85-11.69.84-5.27,1.66-10.55,2.51-15.82,5.78-35.91,4-76.08-21.36-104.59a64.87,64.87,0,0,0-5.26-5.23c1.25-.2,2.49-.42,3.72-.7,17.07-3.79,31-15.24,41.26-29,18.77-25.23,26.33-60.1,19.32-90.84,19.82-.18,38.82-5.59,52.95-22,21.18-24.55,31.37-59.82,24.08-91.67C401.52,1155.14,401.35,1154.61,401.21,1154.07Z"/><path class="cls-2" d="M296,1390.56c0-4.43-3.21-9-7.65-10-8.84-2-18.15-1.17-27.15-2.07a167,167,0,0,1-22-3.86c-1.92-.62-3.86-1.19-5.78-1.85-13.7-4.71-28.75-9.67-39.32-20a1.7,1.7,0,0,0-.15-.22c-3.86-6.48-15-5.71-16.75,2.19-2.94,13.42,7,22.13,16.82,29.33a105.31,105.31,0,0,0,29.31,14.86,139.87,139.87,0,0,0,48.92,6.91,43.7,43.7,0,0,0,14.4-3.48h.07c.57-.24,1.16-.45,1.71-.71a5.46,5.46,0,0,0,2.32-2.12A10.28,10.28,0,0,0,296,1390.56Z"/><path class="cls-2" d="M1214.21,1390.56c0-4.43,3.21-9,7.65-10,8.83-2,18.14-1.17,27.14-2.07a167,167,0,0,0,22-3.86c1.93-.62,3.87-1.19,5.79-1.85,13.7-4.71,28.75-9.67,39.31-20,.05-.08.11-.15.16-.22,3.85-6.48,15-5.71,16.75,2.19,2.93,13.42-7,22.13-16.82,29.33a105.23,105.23,0,0,1-29.32,14.86,139.83,139.83,0,0,1-48.92,6.91,43.64,43.64,0,0,1-14.39-3.48h-.07c-.57-.24-1.16-.45-1.71-.71a5.46,5.46,0,0,1-2.32-2.12A10.26,10.26,0,0,1,1214.21,1390.56Z"/></g><rect class="cls-3" width="1500" height="1610"/></g></g></g></g></g></svg>