<?xml version="1.0" encoding="utf-8"?>
<!-- Generator: Adobe Illustrator 25.3.1, SVG Export Plug-In . SVG Version: 6.00 Build 0)  -->
<svg version="1.1" id="Capa_1" xmlns="http://www.w3.org/2000/svg" xmlns:xlink="http://www.w3.org/1999/xlink" x="0px" y="0px"
	 viewBox="0 0 1500 1610" style="enable-background:new 0 0 1500 1610;" xml:space="preserve">
<style type="text/css">
	.st0{fill:#EC5355;}
	.st1{fill:none;}
</style>
<g>
	<g id="Capa_2_1_">
		<g id="glasses_SELECT_SHAPE">
			<g id="red">
				<g id="_03-fashion">
					<path class="st0" d="M1296.8,683.7l-113.3,9.3c3-11,5.9-27.7,9.5-42.5c9.5-39.5,2-59.5-35.5-68c-37.7-8.5-232.6-1.2-322,39.8
						c-14.6,6.7-24.9,19.3-30.6,37.3c-4.8,15.3-5.8,33.3-4.4,51.7c-15.3-8.9-33.7-10.1-46.8-10.1s-31.6,1.2-46.8,10.1
						c1.4-18.3,0.4-36.4-4.4-51.7c-5.7-18.1-16-30.7-30.6-37.3c-89.4-41-284.2-48.3-322-39.8c-37.5,8.5-45,28.5-35.5,68
						c3.6,14.8,6.5,31.5,9.5,42.5l-113.3-9.3c-5.8-0.5-10.9,3.8-11.3,9.6c-0.5,5.8,3.8,10.9,9.6,11.3l0,0l120.5,9.9
						c10.5,47.5,27.8,135.6,120,172.1c26.4,10.4,51.8,15.6,76.2,15.6c26.5,0.1,52.7-6.4,76.1-18.8c42.3-22.2,67.7-57.9,79.1-77.2
						c6.7-11.5,14.5-32,20-55.3c4.9-11.9,14.1-21.2,24.3-25.2c10.4-4,22-4.7,33-4.1c10.6,0.5,21.1,1.9,30.6,7.1
						c3.8,2,7.2,4.7,10,7.9c8.9,10.2,10.3,24.7,14.4,37.2c3.6,11.1,7.7,22.3,13.7,32.4c11.4,19.3,36.8,55,79,77.2
						c23.4,12.4,49.6,18.9,76.1,18.8c24.4,0,49.8-5.2,76.2-15.6c92.2-36.5,109.5-124.6,120-172.1l120.5-9.9
						c5.8-0.5,10.1-5.6,9.6-11.3C1307.6,687.5,1302.5,683.2,1296.8,683.7L1296.8,683.7z M630,837.5C583.5,880.6,515.2,890,457,867
						c-39.7-15.7-69.2-51.7-84.2-91c-10.4-27.4-42.2-166.7,12.5-173.2c60-7.1,205.2,5.2,277.7,38.5c9.1,4.2,15.4,12.2,19.3,24.5
						C700.1,722.3,671.9,798.6,630,837.5z M1134.5,776.1c-14.9,39.2-44.4,75.2-84.2,91c-58.1,23-126.5,13.6-172.9-29.5
						c-42-38.9-70.1-115.2-52.4-171.6c3.9-12.3,10.2-20.4,19.3-24.5c72.5-33.3,217.7-45.6,277.7-38.5
						C1176.6,609.4,1144.8,748.7,1134.5,776.1L1134.5,776.1z"/>
				</g>
				<rect class="st1" width="1500" height="1610"/>
			</g>
		</g>
	</g>
</g>
</svg>
