<svg xmlns="http://www.w3.org/2000/svg" viewBox="0 0 1500 1610"><defs><style>.cls-1{fill:#ffd89e;}.cls-2{fill:none;}</style></defs><g id="Capa_2" data-name="Capa 2"><g id="hair_SELECT_COLOR" data-name="hair // SELECT COLOR"><g id="_01-high_bangs" data-name="01-high bangs"><g id="_01-short-dark" data-name="01-short-dark"><path id="_01-short-dark-2" data-name="01-short-dark" class="cls-1" d="M279,803.5s-79.33-197.33-60-345c17-130,73-143,102-155a228.62,228.62,0,0,1,54-15s47-130,180-165,236,8,274,23,73,49,73,49,28-19,48-41a163.54,163.54,0,0,0,29-45s23,33,22,72-15,60-15,60,43.7-30.57,72.5-70.5c22-30.5,31-64.5,31-64.5s26,17,20,73c-4.94,46.13-31.5,79-31.5,79s44.5-37.5,74-77a599.2,599.2,0,0,0,34-51s19,47,2,107c-14,49.47-32,68-32,68s90-9,125,79-52,419-52,419-61.22-83.18-98-172c-41-99-61-246-61-246s-106,110-301,107-341-118-341-118-1,91-38,211S279,803.5,279,803.5Z"/><rect class="cls-2" width="1500" height="1610"/></g><rect class="cls-2" width="1500" height="1610"/></g></g></g></svg>