<svg xmlns="http://www.w3.org/2000/svg" viewBox="0 0 1500 1610"><defs><style>.cls-1{fill:#ffd89e;}.cls-2{fill:none;}</style></defs><g id="Capa_2" data-name="Capa 2"><g id="hair_SELECT_COLOR" data-name="hair // SELECT COLOR"><g id="_11-straight_with_bangs" data-name="11-straight with bangs"><path id="_14-long-dark" data-name="14-long-dark" class="cls-1" d="M1436.88,802.68C1395.51,643.07,1299.1,364.51,1117.68,213,965.46,85.94,873.84,99.24,808.82,117c-46.07,12.57-63.55,34-63.55,34S633,49,467.44,155.4s-311.81,280.78-399,601.46-19.21,409.35,246.79,520.19c89.17,37.15,205.75,58,329.23,64.34-.49-22.37,0-50.69.72-77,.45-16,1-31.14,1.5-43.8-88.11-16.71-169.86-54.09-232.53-110.28-53.7-48.15-91.29-112.41-115.41-182.64-14.67,9-38.34,15.51-76.62,12.9-98.25-6.69-98.25-163-40.2-201,18-11.78,36.07-11.51,52.36-5.53,13.07,27.75,29.89,43.51,39.57,43.51,14.78,0,66.5-119.7,104.93-203.93S436.41,381.5,436.41,381.5s17.73,156.65,78.32,141.87,130-165.51,130-165.51S655.12,560.32,745.27,554.4,866.33,370.17,866.33,370.17,920.41,520.41,981,523.37s78.67-125.2,78.67-125.2,49,214.65,93.48,304c26.52,53.32,68,85.72,84.23,75.37,3.16-2,5.49-13.65,6.71-31.93,21-14.63,47.47-23.38,74-6,58.05,38,58.05,194.31-40.2,201-32.82,2.25-54.87-2.25-69.75-9.24-21.09,70.41-56.52,132.33-108.51,176.73-70.5,60.21-155.61,97.26-243.75,113.28.21,13.08.39,28.41.48,44.22.12,25.49-.05,52.2-.9,73,177.38-13.46,345.49-54.33,445.47-117.71C1510.77,1087.89,1478.26,962.28,1436.88,802.68Z"/><rect class="cls-2" width="1500" height="1610"/></g></g></g></svg>