<svg xmlns="http://www.w3.org/2000/svg" viewBox="0 0 1500 1610"><defs><style>.cls-1{fill:#ffd89e;}.cls-2{fill:#fff0da;}.cls-3{fill:none;}</style></defs><g id="Capa_2" data-name="Capa 2"><g id="hair_SELECT_COLOR" data-name="hair // SELECT COLOR"><g id="_12-buns" data-name="12-buns"><g id="_15-tied-dark" data-name="15-tied-dark"><path class="cls-1" d="M1372.24,433.71c-49.5-2.33-98.77-14.75-140.34-41.87,28-3.52,56.91-16.12,88.06-39.28,11.41-8.48,22.17-18.33,30.42-30,77.55-109.42-96.09-255.46-201.74-205.23-53,25.18-62.82,73.71-62.2,108.67C1002,151.69,879.88,109.43,705.83,121.72,562.54,131.83,458,195.23,385.56,275.52c.6-33.59-8.3-79.95-52.86-114.6C254.3,99.94,158.48,149.3,112,248s47.91,185.84,119.05,178.58a213.94,213.94,0,0,0,58.32-14.69,164.18,164.18,0,0,1-14,16.89c-19.89,20.89-44.66,36.57-70.39,49.28-15.35,7.59-31.09,14.35-46.82,21.1-3.1,1.33-.85,6.81,2.32,5.5,45.92-19,95.81-39.62,129.35-77.39q-2,4.81-3.94,9.63a325.76,325.76,0,0,1-19,34.17c-15.76,24.62-33.89,47.56-55.07,67.75a367.1,367.1,0,0,1-37.9,31.87c-3,2.15-.31,7,2.94,5a297.73,297.73,0,0,0,92.07-89.37c-12.26,42.5-17.59,81.69-16.82,112.79,2.18,88.22,9.13,141.7,20.69,191.74,6.91,29.92,22.55,54.77,25.05,31.76,5.33-49.27,22.89-173.6,88.2-268.19,95.82-138.8,249.35-230.55,249.35-230.55s-15.24,56.46-47.91,105.86-76.22,77.63-58.8,84.69S607.1,488.59,655,448.6,731.23,331,733.41,340.38s-6.53,72.93-21.78,115.28-37,82.34-24,91.75,46.82-28.23,75.13-77.64,47.91-109.39,50.09-100,16.33,40,3.27,117.63c-9,53.43-28.31,76.46-13.07,76.46S868.44,491,888,451s34.84-75.28,34.84-75.28,139.38,72.93,213.42,218.79,65.34,225.84,80.58,225.84,69.69-108.21,17.42-327a680.78,680.78,0,0,0-26.09-85.11,473.86,473.86,0,0,0,31.16,49.46c14.36,19.79,33.05,44.74,59.12,48.41,3.35.47,5.92-3.92,2.48-5.88a124.19,124.19,0,0,1-28.49-21.78c-9-9.31-16.71-19.79-24.37-30.22a591.42,591.42,0,0,1-36.3-55.35c.84,0,1.69,0,2.53,0,34.31,26.49,75.75,44.32,119.12,48.06a179,179,0,0,0,38.78-.79C1376.23,439.61,1376.49,433.91,1372.24,433.71Z"/><path class="cls-2" d="M400.63,247.86c-.43,0-.86.11-1.29.16-1.13-2.22-3.56-3.78-6.14-2.78-12,4.65-21.81,15.18-30.91,24a382.21,382.21,0,0,0-70.91,94.77q-5,9.51-9.26,19.39c-3,7.08-5.46,15-5.67,22.71a4.42,4.42,0,0,0,.84,2.67c-2.53,7.4-3.81,15-2.59,22.86.78,5.06,7.89,6.2,11.09,2.92,9.95-10.19,13.44-25.29,19-37.8a377.24,377.24,0,0,1,19.65-38.34,384.24,384.24,0,0,1,49.65-67.08c5.42-5.84,11.11-11.38,16.79-17a85.9,85.9,0,0,0,8.67-9.43c2.42-3.2,5.47-6.2,6.38-10.21C406.65,251.43,404.33,247.76,400.63,247.86Z"/><path class="cls-2" d="M1236.45,387.29a15.86,15.86,0,0,0-.6-3.49,41.63,41.63,0,0,0-1.92-5.64c-1.8-4.49-3.69-8.89-5.86-13.21-3.75-7.44-7.55-14.85-11.47-22.2a482.52,482.52,0,0,0-26-43.46c-17.12-25.27-37.17-48.38-61.91-66.45-13.65-10-28.33-17.33-44.06-23.42a3.49,3.49,0,0,0-3.53.51c-4,.95-7,6.29-3,9.37,3.07,2.4,5.4,5.33,8.23,8s5.73,5.15,8.57,7.75c5.71,5.23,11.46,10.42,17,15.83A435.88,435.88,0,0,1,1143.67,285a387,387,0,0,1,49.62,76.78c3.37,7,6.53,14.06,9.9,21a114.65,114.65,0,0,0,5.58,10.07c2.65,4.33,4.63,9.12,10.58,9.24,3.89.07,7-3,8.13-6.57,4,3.39,9.19-.94,8.47-5.65C1235.84,389.27,1236.45,388.05,1236.45,387.29Z"/></g><rect class="cls-3" width="1500" height="1610"/></g></g></g></svg>