<svg xmlns="http://www.w3.org/2000/svg" viewBox="0 0 1500 1610"><defs><style>.cls-1{fill:#ffd89e;}.cls-2{fill:none;}</style></defs><g id="Capa_2" data-name="Capa 2"><g id="hair_SELECT_COLOR" data-name="hair // SELECT COLOR"><g id="_15-straight_bang" data-name="15-straight bang"><g id="_13-long-dark" data-name="13-long-dark"><path class="cls-1" d="M948.42,270s75.4,73.24,154,228.35,94.7,289.42,106.55,290.49c6.12.56,21.91-21.85,35.75-43.66,18.21-12.51,40.47-20.48,63.28-10.94,14.89-62.21,40.14-151.6,28.87-246.85-15.8-133.56-75.27-218.95-158.57-269.21s-200.47-6.53-204.78-3.66c0,0-195.64-136.23-416.69-87C305.53,183.55,257,322.17,229,468.83c-18.84,98.67-19.19,198.25-21.56,261.43,17.58-1.76,34.32,5.47,48.53,15.37,4.54,26.19,10.8,43.55,18.36,43.2,23.7-1.07,89.21-152.62,91.36-160.16s42-11.85,117.41-22.62,269.28-7.54,290.82-12.92,11.85-51.7,54.94-155.11S948.42,270,948.42,270Z"/><path class="cls-1" d="M1414.33,1114.17c-14-60.2-49.76-139.51-77.94-206-13,18.06-32.24,30.56-58.51,32.35-32.82,2.25-54.87-2.25-69.75-9.24-21.09,70.41-56.52,132.33-108.51,176.73-70.5,60.21-155.61,97.26-243.75,113.28.21,13.08.39,28.41.48,44.22.15,32.13-.15,66.24-1.71,88a455,455,0,0,1,54.48,7.44c20.58,4.17,40.77,10.11,59.49,18.57a181.15,181.15,0,0,1,47.1,30.15c30.32,27.32,44.49,73,51,113.8,57.76-7.57,102.37-16.47,126.31-25.37C1411.67,1416.83,1438.75,1219,1414.33,1114.17Z"/><path class="cls-1" d="M298.74,927.67c-14.67,9-38.34,15.51-76.62,12.9-31.8-2.17-53.29-20-65.87-44.44-25.52,51.5-53.86,110.49-69.92,195.37-20.62,109-7.12,253,102.67,351,47,41.94,136.24,68.47,243.24,83.89,6.28-41.53,20.39-88.69,51.42-116.65a180.65,180.65,0,0,1,47.1-30.15c18.72-8.46,38.91-14.4,59.46-18.57a460,460,0,0,1,54.63-7.47c-1.05-23.58-.57-57.81.33-89.16.45-16,1-31.14,1.5-43.8-88.11-16.71-169.86-54.09-232.53-110.28C360.45,1062.16,322.86,997.9,298.74,927.67Z"/></g><rect class="cls-2" width="1500" height="1610"/></g></g></g></svg>