<?xml version="1.0" encoding="utf-8"?>
<!-- Generator: Adobe Illustrator 25.3.1, SVG Export Plug-In . SVG Version: 6.00 Build 0)  -->
<svg version="1.1" id="Capa_1" xmlns="http://www.w3.org/2000/svg" xmlns:xlink="http://www.w3.org/1999/xlink" x="0px" y="0px"
	 viewBox="0 0 1500 1610" style="enable-background:new 0 0 1500 1610;" xml:space="preserve">
<style type="text/css">
	.st0{fill:#F2C891;}
	.st1{fill:#FFE3BB;}
	.st2{fill:#FFD89E;}
	.st3{fill:none;}
</style>
<g>
	<g id="Capa_2_1_">
		<g id="hair_SELECT_COLOR">
			<g id="_16-pigtails">
				<g id="_16-tied-dark">
					<path class="st0" d="M1449,791.8c-61.5,142-103.9,308.9-101,393.8s90.8,200.6,68.8,216.7s-162.5,5.8-275.2-183
						c-19-31.8-31.9-70.4-40.2-112.7c51-44.3,85.9-105.6,106.7-175.2c14.9,7,36.9,11.5,69.8,9.2c98.2-6.7,98.2-163,40.2-201
						c-31.4-20.5-62.8-4.5-85,14.6l-0.8,0.6c-0.1-147.1-45-299-120.2-395.5c5-2.3,9-3.7,9-3.7s70.3-109.8,221-36.6
						S1510.5,649.8,1449,791.8z"/>
					<path class="st0" d="M399.4,1096.2c-1.5,8.7-3.3,17.1-5.2,25.4c-0.1,0.3-0.1,0.6-0.2,0.8c-0.6,2.6-1.2,5.1-1.8,7.7
						s-1.3,5-1.9,7.5c-0.3,1-0.5,2-0.8,3c-0.5,1.9-1,3.9-1.6,5.8c-0.8,2.6-1.5,5.3-2.3,7.9c0,0.1-0.1,0.3-0.1,0.4
						c-0.8,2.6-1.6,5-2.5,7.5c-1.9,5.6-3.9,11-6,16.4c-0.8,2.1-1.6,4.2-2.5,6.2c-1.9,4.7-4,9.4-6.2,13.9c-0.8,1.6-1.5,3.2-2.3,4.7
						c-0.4,0.9-0.9,1.7-1.3,2.6c-1.2,2.2-2.4,4.5-3.6,6.7s-2.5,4.4-3.8,6.5C244.5,1408.1,104,1418.3,82,1402.2
						s65.9-131.7,68.8-216.7s-39.5-251.8-101-393.8S5.9,392.1,156.7,318.9s221.1,36.6,221.1,36.6l0.5,0.1c0.2,0.1,0.4,0.1,0.6,0.3
						c1.6,0.6,4.8,1.9,8.5,3.6c-28,31.6-55.2,72.1-80.3,125.5c-31.3,66.5-47.6,165.1-41.6,267.8l-0.3-0.3
						c-22.1-18.3-52.6-32.9-83.1-13c-58,38-58,194.3,40.2,201c38.3,2.6,61.9-3.9,76.6-12.9C320.6,991.3,353.5,1050,399.4,1096.2z"/>
					<path class="st1" d="M394,358.4c0,0,6.2-23.6-14.8-32.8s-53.2,19-70,56.7s-5.8,56.8,11.6,58.9S394,358.4,394,358.4z"/>
					<path class="st1" d="M1104.8,358.4c0,0-6.2-23.6,14.8-32.8s53.2,19,70,56.7s5.8,56.8-11.6,58.9S1104.8,358.4,1104.8,358.4z"/>
					<path class="st2" d="M283.7,810.2c0,0-38.4-71-32-158.7c16-218.7,190.7-450.7,418.7-474.7c50.8-5.4,77.3,22.7,77.3,22.7
						s145-64.9,268,20s193.1,232.8,218,326.5s15.1,246.6,3.4,264.2s-79.5-103.2-116.1-169c-30.4-54.7-60-134.7-60-134.7
						s-2.9,52.7-52.7,36.6s-99.5-73.2-120-120s-26.3-71.7-26.3-71.7s-19.5,122.5-79.5,156.2S677,411.5,677,411.5
						s-50.7,113.3-106.7,116c-48.6,2.3-78.7-90.7-78.7-90.7s-41.3,92-112,221.3C324.1,759.9,283.7,810.2,283.7,810.2z"/>
				</g>
				<rect class="st3" width="1500" height="1610"/>
			</g>
		</g>
	</g>
</g>
</svg>
