<?xml version="1.0" encoding="utf-8"?>
<!-- Generator: Adobe Illustrator 25.3.1, SVG Export Plug-In . SVG Version: 6.00 Build 0)  -->
<svg version="1.1" id="Capa_1" xmlns="http://www.w3.org/2000/svg" xmlns:xlink="http://www.w3.org/1999/xlink" x="0px" y="0px"
	 viewBox="0 0 1500 1610" style="enable-background:new 0 0 1500 1610;" xml:space="preserve">
<style type="text/css">
	.st0{fill:#F07677;}
	.st1{fill:#EC5355;}
	.st2{fill:#C34848;}
	.st3{fill:none;}
</style>
<g>
	<g id="Capa_2_1_">
		<g id="hiyab_SELECT_COLOR_NO_ADD_HAIR_">
			<g id="_03-red">
				<path class="st0" d="M369,497.5c0,0,142-120,384-114s368,114,368,114s-18-162-140-238s-316-70-426-10S369,497.5,369,497.5z"/>
				<path class="st1" d="M1266.3,486.2c-38.7-78.7-157.7-258.1-320-329.3c-109.3-48-147.7-45-198.7-45.3
					c-98.1-0.7-226.7,37.3-356,165.3C218.8,448,151.2,670.7,139.5,842.2c-11.2,163.7,77.5,267.9,125.5,330.6s120,134.7,120,157.3
					s-37.3,98.7-33.3,140s45.3,66.7,140,90.7s278.7,29.3,356,22.7s216-28,264-58.7s48-68,26.7-126.7s-32-74.7,18.7-124
					s161.8-214.7,193.1-350.8C1388.5,756.1,1305,564.8,1266.3,486.2z M1119,947.5c-66,194-194,282-338,286s-300-46-382-248
					s-6-494-6-494s80-192,358-192c280,0,352,164,352,164S1185,753.5,1119,947.5z"/>
				<g>
					<path class="st2" d="M402.9,1149.9c21.9,53.3,55.3,100.6,94.8,142.3c40.3,42.5,85.5,81.8,136.1,111.5s108.2,48.9,167.5,48
						c29.3-0.5,58.8-5.8,86-16.9c26.6-10.9,50.3-27,71.3-46.4c21.3-19.7,39.6-42.4,55.9-66.4c16.8-24.7,32.4-51.4,41.1-80.2
						c2.2-7.1,3.5-14.5,3.9-22c0.2-3.5-5.2-5-6.7-1.8c-6.4,13.2-11.4,27-17.4,40.4c-6.1,13.5-13.1,26.5-20.9,39.1
						c-14.5,23.7-31.6,45.9-50.8,66c-19,19.7-40.4,36.8-64.6,49.5c-24.6,12.8-51.6,20.6-79.2,23c-57,5.2-113.5-9.8-163.9-35.8
						c-50.7-26.1-96-62.3-137.3-101.4c-40.3-38.2-78.2-81.5-103-131.5c-3.1-6.3-6-12.6-8.8-19C405.9,1146,401.9,1147.6,402.9,1149.9
						L402.9,1149.9z"/>
				</g>
				<g>
					<path class="st2" d="M688.4,1326.9c36.2,17,75.9,27.4,116.2,23.4c35.2-3.4,68.8-16.8,95.8-39.7c14.4-12.2,27.2-27.7,33.2-45.8
						c0.8-2.3-2.6-4.4-4.2-2.5c-10.4,12.4-20.6,24.8-32.7,35.7c-11.9,10.7-25.3,19.6-39.8,26.4c-31.6,15-67.9,18.6-102.3,13.9
						c-21.6-2.9-42.7-8.8-62.7-17.4C687.9,1319.1,684.3,1325,688.4,1326.9L688.4,1326.9z"/>
				</g>
				<rect class="st3" width="1500" height="1610"/>
			</g>
		</g>
	</g>
</g>
</svg>
