<?xml version="1.0" encoding="utf-8"?>
<!-- Generator: Adobe Illustrator 25.3.1, SVG Export Plug-In . SVG Version: 6.00 Build 0)  -->
<svg version="1.1" id="Capa_1" xmlns="http://www.w3.org/2000/svg" xmlns:xlink="http://www.w3.org/1999/xlink" x="0px" y="0px"
	 viewBox="0 0 1500 1610" style="enable-background:new 0 0 1500 1610;" xml:space="preserve">
<style type="text/css">
	.st0{fill:#EF6E86;}
	.st1{fill:#CA6074;}
	.st2{fill:none;}
</style>
<g>
	<g id="Capa_2_1_">
		<g id="bow_SELECT_POSITION">
			<g id="pink">
				<g id="_03-bow-center-blue">
					<g id="bow-right-blue">
						<path class="st0" d="M772.3,200.4c0,0,87.4-92.2,133.4-77s74.5,164.9,0.3,188.8s-136.5-78.8-138.7-85S764,202.4,772.3,200.4z"
							/>
						<path class="st0" d="M739.7,196.2c0,0-63-105.8-121-89.9s-67,79.3-50.2,141.1s44.7,80,77.5,70.8s82.2-60.7,91-85.7
							C742.2,217.6,739.7,196.2,739.7,196.2z"/>
						<path class="st1" d="M781.1,195c-5.3-7.1-9.7-12.4-33.7-11.4s-32.7,20.6-32.6,40.8s17.6,28.7,38.1,29.8s30-8.9,31-13.5
							C791.2,209.3,787.9,204.2,781.1,195z"/>
					</g>
				</g>
				<rect class="st2" width="1500" height="1610"/>
			</g>
		</g>
	</g>
</g>
</svg>
