<svg xmlns="http://www.w3.org/2000/svg" viewBox="0 0 1500 1610"><defs><style>.cls-1{fill:#54b66d;}.cls-2{fill:none;}</style></defs><g id="Capa_2" data-name="Capa 2"><g id="clothes_SELECT_SHAPE" data-name="clothes // SELECT SHAPE"><g id="green"><path id="_03-roud_neck-blue" data-name="03-roud neck-blue" class="cls-1" d="M1015.71,1409.74a181.15,181.15,0,0,0-47.1-30.15c-18.72-8.46-38.91-14.4-59.49-18.57a443.86,443.86,0,0,0-50.91-7.14c-1-.1-2-.17-3-.25C827,1385,787.49,1402.5,750,1402.5s-79.5-18.5-105.32-48.93a459,459,0,0,0-54.46,7.45c-20.55,4.17-40.74,10.11-59.46,18.57a180.65,180.65,0,0,0-47.1,30.15C418.92,1468.06,427.83,1610,427.83,1610h643.71S1080.45,1468.06,1015.71,1409.74Z"/><rect class="cls-2" width="1500" height="1610"/></g></g></g></svg>